<svg xmlns="http://www.w3.org/2000/svg" xmlns:xlink="http://www.w3.org/1999/xlink" width="108" zoomAndPan="magnify" viewBox="0 0 81 84.749999" height="113" preserveAspectRatio="xMidYMid meet" version="1.0"><defs><clipPath id="ced0f1186e"><path d="M 0.117188 0 L 80.878906 0 L 80.878906 84.5 L 0.117188 84.5 Z M 0.117188 0 " clip-rule="nonzero"/></clipPath><clipPath id="c3122f2cbe"><path d="M 0.117188 16 L 41 16 L 41 44 L 0.117188 44 Z M 0.117188 16 " clip-rule="nonzero"/></clipPath><clipPath id="104611fd14"><path d="M 2 3.769531 L 41 3.769531 L 41 44 L 2 44 Z M 2 3.769531 " clip-rule="nonzero"/></clipPath><clipPath id="e9c7b12e02"><path d="M 0.117188 44 L 40 44 L 40 51 L 0.117188 51 Z M 0.117188 44 " clip-rule="nonzero"/></clipPath><clipPath id="41d8787d92"><path d="M 22 3.769531 L 41 3.769531 L 41 44 L 22 44 Z M 22 3.769531 " clip-rule="nonzero"/></clipPath><clipPath id="cb236ed060"><path d="M 0.117188 32 L 40 32 L 40 44 L 0.117188 44 Z M 0.117188 32 " clip-rule="nonzero"/></clipPath><clipPath id="ea10514a23"><path d="M 0.117188 44 L 41 44 L 41 66 L 0.117188 66 Z M 0.117188 44 " clip-rule="nonzero"/></clipPath><clipPath id="ae0c0d87d3"><path d="M 40.390625 29.738281 L 80.132812 29.738281 L 80.132812 44 L 40.390625 44 Z M 40.390625 29.738281 " clip-rule="nonzero"/></clipPath><clipPath id="642a4aad95"><path d="M 40.390625 12.234375 L 80.132812 12.234375 L 80.132812 43.851562 L 40.390625 43.851562 Z M 40.390625 12.234375 " clip-rule="nonzero"/></clipPath><clipPath id="d04ff37f65"><path d="M 36 3.769531 L 42 3.769531 L 42 44 L 36 44 Z M 36 3.769531 " clip-rule="nonzero"/></clipPath><clipPath id="a54e71e1e1"><path d="M 40 3.769531 L 55 3.769531 L 55 44 L 40 44 Z M 40 3.769531 " clip-rule="nonzero"/></clipPath><clipPath id="2cefdb521b"><path d="M 40 3.769531 L 73 3.769531 L 73 44 L 40 44 Z M 40 3.769531 " clip-rule="nonzero"/></clipPath><clipPath id="c43586edcf"><path d="M 40.203125 44.039062 L 80.132812 44.039062 L 80.132812 82.804688 L 40.203125 82.804688 Z M 40.203125 44.039062 " clip-rule="nonzero"/></clipPath><clipPath id="881aafc223"><path d="M 40.203125 44.039062 L 50.550781 44.039062 L 50.550781 83.78125 L 40.203125 83.78125 Z M 40.203125 44.039062 " clip-rule="nonzero"/></clipPath><clipPath id="9e668d7f3b"><path d="M 17.433594 44.039062 L 40.203125 44.039062 L 40.203125 83.78125 L 17.433594 83.78125 Z M 17.433594 44.039062 " clip-rule="nonzero"/></clipPath><clipPath id="f3201abfbe"><path d="M 40.390625 43.472656 L 80.132812 43.472656 L 80.132812 48.554688 L 40.390625 48.554688 Z M 40.390625 43.472656 " clip-rule="nonzero"/></clipPath><clipPath id="fda788669c"><path d="M 40.390625 44.039062 L 80.132812 44.039062 L 80.132812 62.855469 L 40.390625 62.855469 Z M 40.390625 44.039062 " clip-rule="nonzero"/></clipPath><clipPath id="fad089e569"><path d="M 40.203125 44.039062 L 66.546875 44.039062 L 66.546875 83.78125 L 40.203125 83.78125 Z M 40.203125 44.039062 " clip-rule="nonzero"/></clipPath><clipPath id="2d20b06c1a"><path d="M 32.484375 44.226562 L 40.203125 44.226562 L 40.203125 83.78125 L 32.484375 83.78125 Z M 32.484375 44.226562 " clip-rule="nonzero"/></clipPath><clipPath id="8bd07736e2"><path d="M 0.117188 43.851562 L 40.765625 43.851562 L 40.765625 83.78125 L 0.117188 83.78125 Z M 0.117188 43.851562 " clip-rule="nonzero"/></clipPath><clipPath id="9e564b7bb8"><path d="M 9.390625 31.582031 L 74.144531 31.582031 L 74.144531 83.753906 L 9.390625 83.753906 Z M 9.390625 31.582031 " clip-rule="nonzero"/></clipPath><clipPath id="bf242eb544"><path d="M 41.742188 45.023438 L 62.679688 45.023438 L 62.679688 83.753906 L 41.742188 83.753906 Z M 41.742188 45.023438 " clip-rule="nonzero"/></clipPath><clipPath id="8d6bc9efc0"><path d="M 0.117188 36 L 4 36 L 4 41 L 0.117188 41 Z M 0.117188 36 " clip-rule="nonzero"/></clipPath><clipPath id="43d307e19c"><path d="M 63.433594 44.179688 L 74.144531 44.179688 L 74.144531 80.246094 L 63.433594 80.246094 Z M 63.433594 44.179688 " clip-rule="nonzero"/></clipPath></defs><g clip-path="url(#ced0f1186e)"><path fill="#ffffff" d="M 0.117188 0 L 80.882812 0 L 80.882812 84.5 L 0.117188 84.5 Z M 0.117188 0 " fill-opacity="1" fill-rule="nonzero"/></g><g clip-path="url(#c3122f2cbe)"><path fill="#fbc561" d="M 0.121094 16.527344 L 0.121094 22.570312 L 39.390625 43.554688 L 40.054688 43.871094 L 0.121094 16.527344 " fill-opacity="1" fill-rule="nonzero"/></g><g clip-path="url(#104611fd14)"><path fill="#fbc561" d="M 10.230469 3.769531 L 2.699219 3.769531 L 40.097656 43.804688 L 39.8125 43.371094 L 10.230469 3.769531 " fill-opacity="1" fill-rule="nonzero"/></g><g clip-path="url(#e9c7b12e02)"><path fill="#fbc561" d="M 0.121094 46.398438 L 0.121094 50.875 L 39.257812 44.175781 L 39.894531 44.027344 L 0.121094 46.398438 " fill-opacity="1" fill-rule="nonzero"/></g><g clip-path="url(#41d8787d92)"><path fill="#fbc561" d="M 22.234375 3.769531 L 40.148438 43.726562 L 27.332031 3.769531 Z M 22.234375 3.769531 " fill-opacity="1" fill-rule="nonzero"/></g><g clip-path="url(#cb236ed060)"><path fill="#fbc561" d="M 0.121094 32.902344 L 0.121094 37.542969 L 39.988281 43.894531 Z M 0.121094 32.902344 " fill-opacity="1" fill-rule="nonzero"/></g><g clip-path="url(#ea10514a23)"><path fill="#fbc561" d="M 0.121094 65.945312 L 40.09375 44.035156 L 39.792969 44.140625 L 0.121094 60.511719 L 0.121094 65.945312 " fill-opacity="1" fill-rule="nonzero"/></g><g clip-path="url(#ae0c0d87d3)"><path fill="#fbc561" d="M 80.132812 29.816406 L 40.539062 43.875 L 80.132812 34.605469 Z M 80.132812 29.816406 " fill-opacity="1" fill-rule="nonzero"/></g><g clip-path="url(#642a4aad95)"><path fill="#fbc561" d="M 80.132812 12.277344 L 40.433594 43.847656 L 41 43.539062 L 80.132812 18.878906 L 80.132812 12.277344 " fill-opacity="1" fill-rule="nonzero"/></g><g clip-path="url(#d04ff37f65)"><path fill="#fbc561" d="M 36.59375 3.769531 L 40.097656 42.726562 L 40.234375 43.691406 L 40.285156 43.019531 L 41.003906 3.769531 L 36.59375 3.769531 " fill-opacity="1" fill-rule="nonzero"/></g><path fill="#fbc561" d="M 40.25 43.792969 L 40.261719 43.894531 L 40.25 43.914062 L 40.234375 43.859375 L 40.226562 43.902344 L 40.242188 43.929688 L 40.238281 43.9375 L 40.246094 43.945312 L 40.25 43.9375 L 40.253906 43.9375 L 40.253906 43.929688 L 40.261719 43.902344 L 40.265625 43.929688 L 40.269531 43.882812 L 40.277344 43.648438 L 40.25 43.792969 " fill-opacity="1" fill-rule="nonzero"/><g clip-path="url(#a54e71e1e1)"><path fill="#fbc561" d="M 50.039062 3.769531 L 40.332031 43.714844 L 54.894531 3.769531 Z M 50.039062 3.769531 " fill-opacity="1" fill-rule="nonzero"/></g><g clip-path="url(#2cefdb521b)"><path fill="#fbc561" d="M 66.007812 3.769531 L 40.78125 43.089844 L 40.371094 43.800781 L 72.738281 3.769531 L 66.007812 3.769531 " fill-opacity="1" fill-rule="nonzero"/></g><g clip-path="url(#c43586edcf)"><path fill="#fbc561" d="M 80.132812 74.972656 L 40.679688 44.296875 L 40.363281 44.082031 L 80.132812 82.699219 L 80.132812 74.972656 " fill-opacity="1" fill-rule="nonzero"/></g><g clip-path="url(#881aafc223)"><path fill="#fbc561" d="M 50.410156 83.78125 L 40.40625 44.535156 L 40.308594 44.226562 L 45.851562 83.78125 L 50.410156 83.78125 " fill-opacity="1" fill-rule="nonzero"/></g><g clip-path="url(#9e668d7f3b)"><path fill="#fbc561" d="M 22.9375 83.78125 L 40.105469 44.335938 L 40.175781 44.140625 L 17.4375 83.78125 L 22.9375 83.78125 " fill-opacity="1" fill-rule="nonzero"/></g><g clip-path="url(#f3201abfbe)"><path fill="#fbc561" d="M 80.132812 43.554688 L 41.382812 43.9375 L 40.566406 43.988281 L 41.71875 44.171875 L 80.132812 48.371094 L 80.132812 43.554688 " fill-opacity="1" fill-rule="nonzero"/></g><g clip-path="url(#fda788669c)"><path fill="#fbc561" d="M 80.132812 57.644531 L 40.433594 44.046875 L 80.132812 62.777344 Z M 80.132812 57.644531 " fill-opacity="1" fill-rule="nonzero"/></g><g clip-path="url(#fad089e569)"><path fill="#fbc561" d="M 60.492188 83.78125 L 66.363281 83.78125 L 40.371094 44.222656 L 40.550781 44.625 L 60.492188 83.78125 " fill-opacity="1" fill-rule="nonzero"/></g><g clip-path="url(#2d20b06c1a)"><path fill="#fbc561" d="M 37.074219 83.78125 L 40.183594 44.324219 L 40.007812 45.046875 L 32.609375 83.78125 L 37.074219 83.78125 " fill-opacity="1" fill-rule="nonzero"/></g><g clip-path="url(#8bd07736e2)"><path fill="#fbc561" d="M 40.320312 44.019531 L 40.359375 44.023438 L 40.292969 44 L 40.296875 44 L 40.285156 43.988281 L 40.292969 43.984375 L 40.320312 43.996094 L 40.34375 43.992188 L 40.300781 43.976562 L 40.339844 43.953125 L 40.460938 43.972656 L 40.601562 43.945312 L 40.347656 43.949219 L 40.363281 43.9375 L 40.324219 43.949219 L 40.332031 43.949219 L 40.277344 43.972656 L 40.273438 43.972656 L 40.277344 43.972656 L 40.273438 43.976562 L 40.273438 43.984375 L 40.269531 43.980469 L 40.265625 43.980469 L 40.257812 43.96875 L 40.253906 43.964844 L 40.257812 43.96875 L 40.242188 43.964844 L 40.253906 43.976562 L 40.257812 43.972656 L 40.257812 43.976562 L 40.261719 43.980469 L 40.261719 43.976562 L 40.261719 43.984375 L 40.265625 43.988281 L 40.265625 43.992188 L 40.261719 43.988281 L 40.253906 44.007812 L 40.25 44.003906 L 40.257812 43.988281 L 40.246094 44 L 40.238281 43.996094 L 40.246094 43.984375 L 40.234375 43.984375 L 40.234375 43.980469 L 40.230469 43.976562 L 40.242188 43.960938 L 40.226562 43.972656 L 40.226562 43.964844 L 40.222656 43.964844 L 40.222656 43.957031 L 40.214844 43.96875 L 40.21875 43.96875 L 40.214844 43.96875 L 40.21875 43.976562 L 40.214844 43.972656 L 40.210938 43.976562 L 40.207031 43.972656 L 40.203125 43.972656 L 40.179688 43.960938 L 40.183594 43.960938 L 40.171875 43.949219 L 40.152344 43.949219 L 40.09375 43.933594 L 40.128906 43.949219 L 39.738281 43.957031 L 40.054688 43.988281 L 40.15625 43.964844 L 40.183594 43.980469 L 40.140625 44 L 40.15625 44 L 40.191406 43.984375 L 40.203125 43.988281 L 40.179688 44.003906 L 40.191406 44.003906 L 40.101562 44.03125 L 40.175781 44.019531 L 40.023438 44.15625 L 40.148438 44.074219 L 39.765625 44.382812 L 0.121094 79.230469 L 0.121094 83.78125 L 3.882812 83.78125 L 40.054688 44.195312 L 40.140625 44.089844 L 40.113281 44.128906 L 40.179688 44.054688 L 40.199219 44.042969 L 40.1875 44.113281 L 40.214844 44.03125 L 40.238281 44.019531 L 40.230469 44.011719 L 40.234375 44.011719 L 40.242188 44.015625 L 40.238281 44.011719 L 40.25 44.011719 L 40.253906 44.007812 L 40.25 44.011719 L 40.257812 44.011719 L 40.257812 44.019531 L 40.269531 44.027344 L 40.269531 44.015625 L 40.261719 44.011719 L 40.269531 44.011719 L 40.269531 44.003906 L 40.261719 44.011719 L 40.253906 44.007812 L 40.257812 44.007812 L 40.253906 44.007812 L 40.261719 44.003906 L 40.269531 43.996094 L 40.273438 44.003906 L 40.269531 43.996094 L 40.273438 43.996094 L 40.277344 44.003906 L 40.28125 44 L 40.285156 44.003906 L 40.277344 44.003906 L 40.292969 44.015625 L 40.464844 44.128906 L 40.320312 44.019531 " fill-opacity="1" fill-rule="nonzero"/></g><path fill="#fbc561" d="M 40.226562 44.148438 L 40.257812 44.515625 L 40.265625 44.097656 L 40.25 44.046875 L 40.226562 44.148438 " fill-opacity="1" fill-rule="nonzero"/><path fill="#fbc561" d="M 40.242188 43.960938 L 40.242188 43.957031 L 40.242188 43.960938 L 40.246094 43.957031 L 40.242188 43.957031 L 40.246094 43.957031 L 40.238281 43.957031 L 40.246094 43.953125 L 40.230469 43.949219 L 40.242188 43.945312 L 40.234375 43.9375 L 40.230469 43.949219 L 40.242188 43.957031 L 40.238281 43.957031 L 40.242188 43.960938 " fill-opacity="1" fill-rule="nonzero"/><g clip-path="url(#9e564b7bb8)"><path fill="#f2f2f4" d="M 63.441406 80.242188 C 63.46875 79.738281 63.472656 79.179688 63.46875 78.59375 C 63.429688 74.742188 62.816406 69.519531 62.609375 67.878906 C 62.570312 67.546875 62.546875 67.363281 62.546875 67.363281 C 62.546875 67.414062 62.542969 67.472656 62.542969 67.53125 C 62.539062 67.617188 62.53125 67.714844 62.523438 67.816406 C 62.515625 67.886719 62.511719 67.957031 62.503906 68.035156 C 62.5 68.085938 62.492188 68.140625 62.484375 68.195312 C 62.378906 69.074219 62.152344 70.324219 61.855469 71.746094 C 61.824219 71.878906 61.796875 72.015625 61.765625 72.152344 C 61.65625 72.675781 61.535156 73.214844 61.414062 73.765625 C 61.378906 73.914062 61.347656 74.0625 61.308594 74.210938 C 61.070312 75.273438 60.8125 76.359375 60.554688 77.417969 C 60.523438 77.558594 60.488281 77.699219 60.453125 77.839844 C 60.378906 78.136719 60.308594 78.429688 60.238281 78.71875 C 60.203125 78.863281 60.164062 79.003906 60.132812 79.148438 C 60.027344 79.558594 59.929688 79.957031 59.832031 80.34375 C 59.820312 80.398438 59.804688 80.453125 59.789062 80.507812 C 59.679688 80.949219 59.574219 81.371094 59.472656 81.761719 C 53.929688 83.535156 47.957031 84.042969 41.867188 83.601562 C 37.351562 83.277344 32.777344 82.429688 28.265625 81.195312 C 30.34375 77.699219 31.953125 67.488281 32.007812 67.128906 C 31.9375 67.265625 31.066406 68.964844 29.5625 70.742188 C 28.066406 72.515625 25.941406 74.375 23.351562 74.847656 C 18.0625 75.8125 9.40625 53.117188 9.40625 53.117188 L 14.695312 49.253906 L 24.074219 61.328125 C 24.074219 61.328125 24.121094 61.191406 24.214844 60.9375 C 25.242188 58.082031 31.664062 40.386719 33.210938 38.390625 C 34.894531 36.214844 46.675781 32.351562 46.675781 32.351562 C 46.675781 32.351562 48.601562 31.386719 51.246094 31.628906 C 53.890625 31.871094 55.09375 34.765625 55.09375 34.765625 C 55.09375 34.765625 60.863281 37.183594 65.914062 42.253906 C 66.378906 42.71875 66.832031 43.375 67.269531 44.175781 L 67.273438 44.1875 C 70.910156 50.875 73.457031 67.773438 74.144531 72.730469 C 70.921875 76.03125 67.316406 78.492188 63.441406 80.242188 " fill-opacity="1" fill-rule="nonzero"/></g><path fill="#f5947f" d="M 53.410156 32.59375 C 53.890625 34.527344 45.472656 37.664062 45.714844 33.800781 C 45.726562 33.621094 45.738281 33.453125 45.75 33.292969 C 46 29.917969 46.4375 29.695312 46.4375 29.695312 C 46.4375 29.695312 50.351562 28.789062 52.699219 27.210938 C 53.320312 26.800781 53.828125 26.339844 54.128906 25.832031 C 54.128906 25.832031 52.929688 30.664062 53.410156 32.59375 " fill-opacity="1" fill-rule="nonzero"/><path fill="#f17570" d="M 52.699219 27.210938 C 52.460938 27.921875 53.035156 27.921875 52.328125 29.09375 C 50.484375 32.152344 47.273438 33.476562 45.75 33.292969 C 46 29.917969 46.4375 29.695312 46.4375 29.695312 C 46.4375 29.695312 50.351562 28.789062 52.699219 27.210938 " fill-opacity="1" fill-rule="nonzero"/><path fill="#f5947f" d="M 59.339844 21.332031 C 58.820312 22.664062 57.410156 23.355469 56.195312 22.878906 C 56.011719 22.804688 55.847656 22.710938 55.695312 22.601562 C 55.035156 27.449219 51.628906 31.144531 47.519531 31.144531 C 46.144531 31.144531 44.914062 30.726562 43.851562 29.984375 C 41.371094 28.265625 39.773438 24.808594 39.222656 20.882812 C 39.167969 20.492188 39.121094 20.113281 39.085938 19.746094 C 39.082031 19.6875 39.074219 19.632812 39.070312 19.574219 C 39.050781 19.386719 39.039062 19.203125 39.027344 19.023438 C 38.867188 16.75 39.101562 15.09375 39.617188 13.882812 C 43.617188 14.488281 52.6875 11.828125 53.097656 11.550781 C 53.097656 11.550781 53.097656 11.550781 53.101562 11.554688 C 54.746094 12.523438 55.832031 14.515625 55.601562 18.589844 C 56.273438 17.953125 57.222656 17.710938 58.078125 18.042969 C 58.367188 18.160156 58.621094 18.328125 58.828125 18.539062 C 59.503906 19.214844 59.738281 20.3125 59.339844 21.332031 " fill-opacity="1" fill-rule="nonzero"/><path fill="#484e6c" d="M 59.503906 16.691406 C 59.242188 17.527344 58.980469 18.183594 58.828125 18.539062 C 58.621094 18.328125 58.367188 18.160156 58.078125 18.042969 C 57.222656 17.710938 56.273438 17.953125 55.601562 18.589844 C 55.832031 14.515625 54.746094 12.523438 53.101562 11.554688 C 53.097656 11.550781 53.097656 11.550781 53.097656 11.550781 C 52.6875 11.828125 43.617188 14.488281 39.617188 13.882812 C 39.0625 15.191406 38.832031 17.015625 39.070312 19.574219 C 38.421875 18.613281 36.03125 14.664062 37.15625 10.480469 C 37.558594 8.984375 38.40625 7.464844 39.945312 6.035156 C 46.4375 0 55.574219 5.792969 55.574219 5.792969 C 55.574219 5.792969 58.875 6.597656 59.902344 9.898438 C 60.609375 12.171875 60.066406 14.863281 59.503906 16.691406 " fill-opacity="1" fill-rule="nonzero"/><path fill="#231f20" d="M 46.46875 24.269531 C 45.917969 24.269531 45.402344 24.132812 45.132812 23.730469 C 44.632812 22.976562 45.714844 19.867188 45.839844 19.515625 C 45.863281 19.453125 45.933594 19.417969 45.996094 19.441406 C 46.058594 19.464844 46.09375 19.535156 46.070312 19.597656 C 45.742188 20.523438 44.96875 23.039062 45.335938 23.59375 C 45.746094 24.210938 47.058594 24.046875 47.839844 23.785156 C 47.902344 23.765625 47.972656 23.800781 47.996094 23.863281 C 48.015625 23.925781 47.980469 23.996094 47.917969 24.019531 C 47.535156 24.148438 46.988281 24.269531 46.46875 24.269531 " fill-opacity="1" fill-rule="nonzero"/><path fill="#231f20" d="M 44.511719 17.988281 C 44.429688 17.988281 44.34375 17.957031 44.277344 17.898438 C 43.328125 17.082031 42.28125 17.414062 41.574219 17.839844 C 41.402344 17.941406 41.179688 17.882812 41.078125 17.710938 C 40.976562 17.539062 41.035156 17.316406 41.203125 17.214844 C 41.554688 17.007812 42.105469 16.746094 42.734375 16.6875 C 43.480469 16.621094 44.15625 16.84375 44.746094 17.351562 C 44.898438 17.480469 44.914062 17.707031 44.785156 17.859375 C 44.714844 17.945312 44.613281 17.988281 44.511719 17.988281 " fill-opacity="1" fill-rule="nonzero"/><path fill="#231f20" d="M 48.230469 17.445312 C 48.121094 17.445312 48.015625 17.398438 47.941406 17.304688 C 47.824219 17.144531 47.855469 16.917969 48.011719 16.796875 C 48.777344 16.214844 50.800781 15.011719 53.046875 16.429688 C 53.214844 16.535156 53.265625 16.757812 53.160156 16.929688 C 53.054688 17.097656 52.832031 17.148438 52.664062 17.042969 C 50.863281 15.910156 49.25 16.761719 48.449219 17.375 C 48.382812 17.421875 48.308594 17.445312 48.230469 17.445312 " fill-opacity="1" fill-rule="nonzero"/><path fill="#413851" d="M 50.765625 24.867188 C 50.765625 24.867188 50.660156 26.425781 49.773438 27.496094 C 49.3125 28.058594 48.632812 28.488281 47.636719 28.488281 C 46.574219 28.488281 45.832031 28.09375 45.328125 27.59375 C 44.503906 26.785156 44.292969 25.707031 44.273438 25.601562 C 44.273438 25.59375 44.273438 25.59375 44.273438 25.59375 C 44.511719 25.59375 47.636719 26.558594 50.765625 24.867188 " fill-opacity="1" fill-rule="nonzero"/><path fill="#f9f7fa" d="M 50.765625 24.867188 L 50.269531 25.859375 C 50.105469 26.195312 49.804688 26.4375 49.449219 26.539062 C 47.878906 26.980469 45.414062 26.769531 44.992188 26.558594 C 44.542969 26.332031 44.304688 25.683594 44.273438 25.601562 C 44.273438 25.59375 44.273438 25.59375 44.273438 25.59375 C 44.511719 25.59375 47.636719 26.558594 50.765625 24.867188 " fill-opacity="1" fill-rule="nonzero"/><path fill="#ffffff" d="M 44.152344 20.882812 C 44.152344 21.683594 43.613281 22.332031 42.949219 22.332031 C 42.285156 22.332031 41.746094 21.683594 41.746094 20.882812 C 41.746094 20.085938 42.285156 19.433594 42.949219 19.433594 C 43.613281 19.433594 44.152344 20.085938 44.152344 20.882812 " fill-opacity="1" fill-rule="nonzero"/><path fill="#ffffff" d="M 41.746094 20.882812 C 41.746094 20.085938 42.285156 19.433594 42.949219 19.433594 C 43.613281 19.433594 44.152344 20.085938 44.152344 20.882812 " fill-opacity="1" fill-rule="nonzero"/><path fill="#231f20" d="M 44.152344 21.007812 C 44.085938 21.007812 44.03125 20.953125 44.03125 20.882812 C 44.03125 20.152344 43.546875 19.558594 42.949219 19.558594 C 42.355469 19.558594 41.871094 20.152344 41.871094 20.882812 C 41.871094 20.953125 41.816406 21.007812 41.746094 21.007812 C 41.679688 21.007812 41.625 20.953125 41.625 20.882812 C 41.625 20.019531 42.21875 19.3125 42.949219 19.3125 C 43.679688 19.3125 44.273438 20.019531 44.273438 20.882812 C 44.273438 20.953125 44.21875 21.007812 44.152344 21.007812 " fill-opacity="1" fill-rule="nonzero"/><path fill="#231f20" d="M 43.851562 20.882812 C 43.851562 21.484375 43.570312 21.96875 43.21875 21.96875 C 42.871094 21.96875 42.589844 21.484375 42.589844 20.882812 C 42.589844 20.285156 42.871094 19.796875 43.21875 19.796875 C 43.570312 19.796875 43.851562 20.285156 43.851562 20.882812 " fill-opacity="1" fill-rule="nonzero"/><path stroke-linecap="butt" transform="matrix(0.00209799, 0, 0, -0.00210667, 0.536531, 83.752303)" fill="none" stroke-linejoin="miter" d="M 20645.961849 29843.008497 C 20645.961849 29557.457671 20511.904996 29327.53363 20344.33393 29327.53363 C 20178.624764 29327.53363 20044.567912 29557.457671 20044.567912 29843.008497 C 20044.567912 30126.705097 20178.624764 30358.483364 20344.33393 30358.483364 C 20511.904996 30358.483364 20645.961849 30126.705097 20645.961849 29843.008497 Z M 20645.961849 29843.008497 " stroke="#231f20" stroke-width="72.983002" stroke-opacity="1" stroke-miterlimit="10"/><path fill="#ffffff" d="M 43.429688 20.523438 C 43.429688 20.855469 43.160156 21.125 42.828125 21.125 C 42.496094 21.125 42.226562 20.855469 42.226562 20.523438 C 42.226562 20.1875 42.496094 19.917969 42.828125 19.917969 C 43.160156 19.917969 43.429688 20.1875 43.429688 20.523438 " fill-opacity="1" fill-rule="nonzero"/><path fill="#ffffff" d="M 51.324219 20.644531 C 51.324219 21.574219 50.699219 22.332031 49.921875 22.332031 C 49.148438 22.332031 48.519531 21.574219 48.519531 20.644531 C 48.519531 19.710938 49.148438 18.953125 49.921875 18.953125 C 50.699219 18.953125 51.324219 19.710938 51.324219 20.644531 " fill-opacity="1" fill-rule="nonzero"/><path fill="#ffffff" d="M 48.519531 20.644531 C 48.519531 19.710938 49.148438 18.953125 49.921875 18.953125 C 50.699219 18.953125 51.324219 19.710938 51.324219 20.644531 " fill-opacity="1" fill-rule="nonzero"/><path fill="#231f20" d="M 51.324219 20.785156 C 51.246094 20.785156 51.183594 20.722656 51.183594 20.644531 C 51.183594 19.789062 50.617188 19.09375 49.921875 19.09375 C 49.226562 19.09375 48.664062 19.789062 48.664062 20.644531 C 48.664062 20.722656 48.597656 20.785156 48.519531 20.785156 C 48.441406 20.785156 48.378906 20.722656 48.378906 20.644531 C 48.378906 19.632812 49.070312 18.808594 49.921875 18.808594 C 50.773438 18.808594 51.46875 19.632812 51.46875 20.644531 C 51.46875 20.722656 51.402344 20.785156 51.324219 20.785156 " fill-opacity="1" fill-rule="nonzero"/><path fill="#231f20" d="M 50.976562 20.644531 C 50.976562 21.34375 50.644531 21.910156 50.238281 21.910156 C 49.832031 21.910156 49.503906 21.34375 49.503906 20.644531 C 49.503906 19.941406 49.832031 19.375 50.238281 19.375 C 50.644531 19.375 50.976562 19.941406 50.976562 20.644531 " fill-opacity="1" fill-rule="nonzero"/><path stroke-linecap="butt" transform="matrix(0.00209799, 0, 0, -0.00210667, 0.536531, 83.752303)" fill="none" stroke-linejoin="miter" d="M 24042.06879 29956.116292 C 24042.06879 29624.209813 23883.807227 29355.347022 23690.169551 29355.347022 C 23496.531874 29355.347022 23340.132213 29624.209813 23340.132213 29956.116292 C 23340.132213 30289.876997 23496.531874 30558.739788 23690.169551 30558.739788 C 23883.807227 30558.739788 24042.06879 30289.876997 24042.06879 29956.116292 Z M 24042.06879 29956.116292 " stroke="#231f20" stroke-width="85.146004" stroke-opacity="1" stroke-miterlimit="10"/><path fill="#ffffff" d="M 50.484375 20.21875 C 50.484375 20.609375 50.167969 20.925781 49.78125 20.925781 C 49.394531 20.925781 49.082031 20.609375 49.082031 20.21875 C 49.082031 19.832031 49.394531 19.515625 49.78125 19.515625 C 50.167969 19.515625 50.484375 19.832031 50.484375 20.21875 " fill-opacity="1" fill-rule="nonzero"/><path fill="#ec5567" d="M 49.773438 27.496094 C 49.3125 28.058594 48.632812 28.488281 47.636719 28.488281 C 46.574219 28.488281 45.832031 28.09375 45.328125 27.59375 C 45.898438 27.253906 46.722656 27.042969 47.636719 27.042969 C 48.464844 27.042969 49.214844 27.210938 49.773438 27.496094 " fill-opacity="1" fill-rule="nonzero"/><path fill="#252929" d="M 59.503906 16.691406 C 59.242188 17.527344 58.980469 18.183594 58.828125 18.539062 C 58.621094 18.328125 58.367188 18.160156 58.078125 18.042969 C 57.222656 17.710938 56.273438 17.953125 55.601562 18.589844 C 55.832031 14.515625 54.746094 12.523438 53.101562 11.554688 C 53.097656 11.550781 53.097656 11.550781 53.097656 11.550781 C 52.6875 11.828125 43.617188 14.488281 39.617188 13.882812 C 39.0625 15.191406 38.832031 17.015625 39.070312 19.574219 C 38.421875 18.613281 36.03125 14.664062 37.15625 10.480469 C 37.441406 11.222656 37.867188 11.914062 38.5 12.3125 C 38.5 12.3125 51.484375 12.3125 54.371094 8.691406 C 54.371094 8.691406 57.738281 13.277344 57.015625 16.175781 C 57.015625 16.175781 58.308594 16.175781 59.503906 16.691406 " fill-opacity="1" fill-rule="nonzero"/><path fill="#f17570" d="M 59.339844 21.332031 C 58.820312 22.664062 57.410156 23.355469 56.195312 22.878906 C 56.011719 22.804688 55.847656 22.710938 55.695312 22.601562 C 55.035156 27.449219 51.628906 31.144531 47.519531 31.144531 C 46.144531 31.144531 44.914062 30.726562 43.851562 29.984375 C 47.15625 31.355469 52.15625 30.402344 54.011719 24.988281 C 56.65625 17.261719 52.808594 12.433594 52.808594 12.433594 C 47.757812 15.089844 40.0625 14.847656 40.0625 14.847656 L 39.027344 19.023438 C 38.867188 16.75 39.101562 15.09375 39.617188 13.882812 C 43.617188 14.488281 52.6875 11.828125 53.097656 11.550781 C 53.097656 11.550781 53.097656 11.550781 53.101562 11.554688 C 54.746094 12.523438 55.832031 14.515625 55.601562 18.589844 C 56.273438 17.953125 57.222656 17.710938 58.078125 18.042969 C 58.367188 18.160156 58.621094 18.328125 58.828125 18.539062 C 59.503906 19.214844 59.738281 20.3125 59.339844 21.332031 " fill-opacity="1" fill-rule="nonzero"/><path fill="#231f20" d="M 56.910156 22.039062 C 56.902344 22.039062 56.890625 22.039062 56.882812 22.035156 C 56.160156 21.847656 55.65625 21.125 55.65625 20.28125 C 55.65625 19.289062 56.363281 18.480469 57.234375 18.480469 C 57.5625 18.480469 57.875 18.59375 58.140625 18.808594 C 58.1875 18.847656 58.195312 18.914062 58.160156 18.964844 C 58.121094 19.011719 58.050781 19.019531 58.003906 18.980469 C 57.777344 18.796875 57.511719 18.703125 57.234375 18.703125 C 56.488281 18.703125 55.878906 19.410156 55.878906 20.28125 C 55.878906 21.015625 56.324219 21.660156 56.9375 21.820312 C 56.996094 21.835938 57.03125 21.898438 57.015625 21.957031 C 57.003906 22.007812 56.960938 22.039062 56.910156 22.039062 " fill-opacity="1" fill-rule="nonzero"/><g clip-path="url(#bf242eb544)"><path fill="#6d757a" d="M 62.667969 67.484375 L 62.609375 67.878906 C 62.570312 67.546875 62.546875 67.363281 62.546875 67.363281 C 62.546875 67.414062 62.542969 67.472656 62.542969 67.53125 C 62.539062 67.617188 62.53125 67.714844 62.523438 67.816406 C 62.515625 67.886719 62.511719 67.957031 62.503906 68.035156 C 62.5 68.085938 62.492188 68.140625 62.484375 68.195312 C 62.378906 69.074219 62.152344 70.324219 61.855469 71.746094 C 61.824219 71.878906 61.796875 72.015625 61.765625 72.152344 C 61.65625 72.675781 61.535156 73.214844 61.414062 73.765625 C 61.378906 73.914062 61.347656 74.0625 61.308594 74.210938 C 61.070312 75.273438 60.8125 76.359375 60.554688 77.417969 C 60.523438 77.558594 60.488281 77.699219 60.453125 77.839844 C 60.378906 78.136719 60.308594 78.429688 60.238281 78.71875 C 60.203125 78.863281 60.164062 79.003906 60.132812 79.148438 C 60.027344 79.558594 59.929688 79.957031 59.832031 80.34375 C 59.820312 80.398438 59.804688 80.453125 59.789062 80.507812 C 59.679688 80.949219 59.574219 81.371094 59.472656 81.761719 C 53.929688 83.535156 47.957031 84.042969 41.867188 83.601562 C 41.742188 83.265625 41.710938 82.890625 41.796875 82.476562 C 41.835938 82.394531 41.867188 82.332031 41.867188 82.332031 C 41.867188 82.332031 44.03125 77.988281 54.605469 82.328125 C 54.378906 82.15625 45.523438 75.539062 49.320312 73.15625 C 53.167969 70.742188 57.496094 75.089844 58.21875 70.742188 C 58.941406 66.398438 54.613281 66.15625 54.613281 64.464844 C 54.613281 62.773438 59.179688 60.84375 59.179688 60.84375 C 59.179688 60.84375 55.8125 53.117188 59.300781 45.027344 C 59.300781 45.027344 57.859375 51.789062 62.667969 67.484375 " fill-opacity="1" fill-rule="nonzero"/></g><path fill="#e44e62" d="M 47.039062 40.804688 L 46.796875 60.601562 L 41.027344 69.050781 L 39.582031 60.359375 C 41.027344 53.359375 45.355469 40.320312 45.355469 40.320312 C 45.113281 39.835938 44.875 37.90625 44.875 37.90625 C 44.875 37.90625 44.867188 37.882812 44.859375 37.847656 C 44.875 37.832031 44.886719 37.8125 44.902344 37.800781 C 45.957031 36.707031 47.15625 35.753906 48 36.941406 C 48.511719 37.664062 48.675781 38.429688 48.84375 39.070312 C 48.050781 39.882812 47.039062 40.804688 47.039062 40.804688 " fill-opacity="1" fill-rule="nonzero"/><path fill="#231f20" d="M 37.539062 82.453125 C 37.519531 82.453125 37.5 82.449219 37.484375 82.4375 C 37.425781 82.410156 37.402344 82.335938 37.433594 82.277344 C 39.039062 79.171875 39.894531 76.027344 40.332031 73.9375 C 40.800781 71.667969 40.894531 70.117188 40.894531 70.101562 C 40.898438 70.035156 40.957031 69.984375 41.019531 69.984375 C 41.085938 69.988281 41.136719 70.046875 41.132812 70.113281 C 41.132812 70.128906 41.042969 71.695312 40.566406 73.980469 C 40.128906 76.089844 39.265625 79.257812 37.644531 82.386719 C 37.625 82.429688 37.582031 82.453125 37.539062 82.453125 " fill-opacity="1" fill-rule="nonzero"/><g clip-path="url(#8d6bc9efc0)"><path fill="#f5947f" d="M 3.636719 38.390625 L 3.375 39.179688 L 2.914062 40.5625 C 2.679688 40.328125 2.457031 40.089844 2.25 39.851562 C 0.9375 38.363281 0.128906 36.871094 0.75 36.457031 C 1.15625 36.1875 1.863281 36.675781 2.40625 37.15625 C 2.832031 37.535156 3.15625 37.90625 3.15625 37.90625 L 3.636719 38.390625 " fill-opacity="1" fill-rule="nonzero"/></g><path fill="#f17570" d="M 3.484375 38.238281 L 3.375 39.179688 L 2.914062 40.5625 C 2.679688 40.328125 2.457031 40.089844 2.25 39.851562 L 2.40625 37.15625 C 2.832031 37.535156 3.15625 37.90625 3.15625 37.90625 L 3.484375 38.238281 " fill-opacity="1" fill-rule="nonzero"/><path fill="#a1a6ad" d="M 39.101562 67.363281 C 38.636719 67.363281 38.261719 67.742188 38.261719 68.207031 C 38.261719 68.675781 38.636719 69.050781 39.101562 69.050781 C 39.566406 69.050781 39.945312 68.675781 39.945312 68.207031 C 39.945312 67.742188 39.566406 67.363281 39.101562 67.363281 " fill-opacity="1" fill-rule="nonzero"/><path fill="#a1a6ad" d="M 37.417969 74.605469 C 36.953125 74.605469 36.578125 74.984375 36.578125 75.449219 C 36.578125 75.917969 36.953125 76.296875 37.417969 76.296875 C 37.882812 76.296875 38.261719 75.917969 38.261719 75.449219 C 38.261719 74.984375 37.882812 74.605469 37.417969 74.605469 " fill-opacity="1" fill-rule="nonzero"/><path fill="#f5947f" d="M 14.695312 50.21875 L 10.367188 53.359375 C 9.808594 51.671875 7.941406 50.421875 6.347656 49.378906 C 6.347656 49.378906 6.34375 49.378906 6.339844 49.378906 C 5.886719 49.078125 5.453125 48.796875 5.078125 48.53125 C 3.394531 47.324219 2.191406 45.875 1.953125 44.90625 C 1.710938 43.941406 2.433594 43.699219 2.433594 43.699219 C 2.433594 43.699219 2.675781 37.183594 2.675781 35.734375 C 2.675781 34.285156 4.019531 34.949219 4.355469 35.972656 C 4.597656 36.699219 4.355469 39.597656 4.355469 39.597656 L 5.800781 41.285156 C 5.800781 41.285156 7.964844 42.011719 8.445312 41.527344 C 8.925781 41.046875 8.445312 40.320312 7.964844 39.355469 C 7.484375 38.390625 7.242188 36.699219 8.925781 35.734375 C 10.609375 34.765625 10.128906 38.628906 10.847656 40.5625 C 11.464844 42.210938 12.605469 45.089844 13.078125 46.949219 C 13.15625 47.269531 13.21875 47.558594 13.253906 47.804688 C 13.496094 49.496094 14.695312 50.21875 14.695312 50.21875 " fill-opacity="1" fill-rule="nonzero"/><path fill="#231f20" d="M 7.964844 43.820312 C 7.914062 43.820312 7.867188 43.789062 7.851562 43.742188 C 7.660156 43.21875 7.328125 42.867188 6.859375 42.699219 C 5.375 42.164062 3 43.550781 2.976562 43.5625 C 2.917969 43.597656 2.84375 43.578125 2.8125 43.519531 C 2.777344 43.464844 2.796875 43.390625 2.855469 43.355469 C 2.953125 43.296875 5.351562 41.898438 6.941406 42.472656 C 7.480469 42.664062 7.863281 43.066406 8.078125 43.660156 C 8.101562 43.722656 8.066406 43.792969 8.003906 43.8125 C 7.992188 43.820312 7.976562 43.820312 7.964844 43.820312 " fill-opacity="1" fill-rule="nonzero"/><path fill="#231f20" d="M 3.394531 45.027344 C 3.328125 45.027344 3.273438 44.976562 3.273438 44.90625 C 3.273438 44.84375 3.328125 44.789062 3.394531 44.789062 C 3.429688 44.78125 3.578125 44.730469 3.71875 44.679688 C 4.574219 44.367188 6.84375 43.542969 8.273438 44.570312 C 8.328125 44.605469 8.339844 44.683594 8.300781 44.738281 C 8.265625 44.792969 8.1875 44.804688 8.132812 44.765625 C 6.804688 43.8125 4.621094 44.605469 3.800781 44.90625 C 3.546875 44.996094 3.457031 45.027344 3.394531 45.027344 " fill-opacity="1" fill-rule="nonzero"/><path fill="#231f20" d="M 9.210938 48.085938 C 9.15625 48.085938 9.101562 48.078125 9.058594 48.066406 C 8.898438 48.03125 8.804688 47.933594 8.804688 47.804688 C 8.804688 47.628906 8.621094 47.441406 8.445312 47.441406 C 8.378906 47.441406 8.324219 47.390625 8.324219 47.324219 C 8.324219 47.257812 8.378906 47.203125 8.445312 47.203125 C 8.753906 47.203125 9.042969 47.492188 9.046875 47.804688 C 9.058594 47.816406 9.121094 47.847656 9.238281 47.84375 C 9.417969 47.832031 9.664062 47.742188 9.78125 47.511719 C 9.992188 47.085938 9.515625 46.171875 8.859375 45.734375 C 8.59375 45.554688 7.867188 45.679688 6.867188 46.078125 C 6.035156 46.402344 5.265625 46.824219 5.164062 46.925781 C 5.117188 46.972656 5.039062 46.972656 4.992188 46.925781 C 4.945312 46.878906 4.945312 46.800781 4.992188 46.753906 C 5.140625 46.605469 5.96875 46.171875 6.777344 45.851562 C 7.902344 45.410156 8.648438 45.300781 8.992188 45.53125 C 9.765625 46.050781 10.261719 47.082031 9.996094 47.617188 C 9.828125 47.957031 9.472656 48.085938 9.210938 48.085938 " fill-opacity="1" fill-rule="nonzero"/><path fill="#f17570" d="M 14.695312 50.21875 L 10.367188 53.359375 C 9.808594 51.671875 7.941406 50.421875 6.347656 49.378906 C 10.867188 51.078125 11.210938 47.683594 11.210938 47.683594 C 12.09375 47.683594 12.683594 47.359375 13.078125 46.949219 C 13.15625 47.269531 13.21875 47.558594 13.253906 47.804688 C 13.496094 49.496094 14.695312 50.21875 14.695312 50.21875 " fill-opacity="1" fill-rule="nonzero"/><path fill="#6d757a" d="M 32.007812 67.121094 L 32.007812 67.128906 C 31.9375 67.265625 31.066406 68.964844 29.5625 70.742188 C 28.5625 66.636719 29.363281 64.707031 31.046875 63.742188 C 32.730469 62.773438 32.007812 62.292969 30.324219 56.496094 C 28.644531 50.703125 31.527344 45.632812 31.527344 45.632812 C 33.933594 55.289062 32.007812 67.121094 32.007812 67.121094 " fill-opacity="1" fill-rule="nonzero"/><path fill="#6d757a" d="M 28.644531 64.464844 C 27.441406 65.914062 24.074219 61.328125 24.074219 61.328125 C 24.074219 61.328125 24.121094 61.191406 24.214844 60.9375 C 24.214844 60.9375 29.84375 63.015625 28.644531 64.464844 " fill-opacity="1" fill-rule="nonzero"/><path fill="#6d757a" d="M 53.402344 39.351562 C 53.265625 39.636719 53.101562 39.90625 52.902344 40.15625 C 51.773438 41.574219 49.492188 41.808594 48.964844 39.792969 C 48.792969 39.15625 48.632812 38.386719 48.121094 37.664062 C 47.273438 36.480469 46.078125 37.433594 45.023438 38.523438 C 45.007812 38.539062 44.992188 38.554688 44.980469 38.570312 C 44.542969 39.019531 44.136719 39.488281 43.792969 39.835938 C 42.589844 41.046875 42.109375 40.5625 42.347656 38.148438 C 42.589844 35.734375 45.59375 34.164062 45.59375 34.164062 C 46.316406 38.75 52.746094 34.15625 53.664062 33.300781 C 53.734375 33.234375 53.769531 33.199219 53.769531 33.199219 C 54.273438 33.390625 54.25 34.5625 54.253906 34.953125 C 54.265625 35.707031 54.167969 36.457031 54.035156 37.195312 C 53.90625 37.933594 53.726562 38.683594 53.402344 39.351562 " fill-opacity="1" fill-rule="nonzero"/><path fill="#f2f2f4" d="M 53.199219 38.886719 C 52.761719 39.84375 51.933594 40.671875 50.839844 40.800781 C 49.632812 40.941406 49.019531 40.445312 48.722656 39.3125 C 48.554688 38.671875 48.394531 37.902344 47.878906 37.183594 C 47.035156 35.996094 45.835938 36.949219 44.78125 38.042969 C 44.765625 38.054688 44.753906 38.074219 44.738281 38.085938 C 44.164062 38.679688 43.648438 39.453125 42.898438 39.835938 C 42.757812 39.90625 42.597656 39.964844 42.449219 39.910156 C 42.34375 39.871094 42.269531 39.777344 42.214844 39.679688 C 41.636719 38.625 42.246094 36.898438 42.820312 35.96875 C 43.148438 35.4375 43.5625 34.964844 44.027344 34.550781 C 44.160156 34.429688 45.597656 33.457031 45.59375 33.441406 C 46.554688 38.027344 52.503906 33.671875 53.421875 32.816406 C 53.492188 32.75 53.53125 32.714844 53.53125 32.714844 C 54.296875 33.488281 53.988281 35.367188 53.863281 36.3125 C 53.757812 37.125 53.570312 38.066406 53.199219 38.886719 " fill-opacity="1" fill-rule="nonzero"/><g clip-path="url(#43d307e19c)"><path fill="#6d757a" d="M 63.441406 80.242188 C 63.46875 79.738281 63.472656 79.179688 63.46875 78.59375 C 65.667969 77.117188 71.398438 72.664062 71.804688 70.621094 C 72.285156 68.207031 67.273438 44.1875 67.273438 44.1875 C 70.910156 50.875 73.457031 67.773438 74.144531 72.730469 C 70.921875 76.03125 67.316406 78.492188 63.441406 80.242188 " fill-opacity="1" fill-rule="nonzero"/></g></svg>