<svg xmlns="http://www.w3.org/2000/svg" xmlns:xlink="http://www.w3.org/1999/xlink" width="447" zoomAndPan="magnify" viewBox="0 0 335.25 135.000003" height="180" preserveAspectRatio="xMidYMid meet" version="1.0"><defs><g/><clipPath id="c7b8a101a5"><path d="M 46 83 L 52 83 L 52 88 L 46 88 Z M 46 83 " clip-rule="nonzero"/></clipPath><clipPath id="1bd7174308"><path d="M 35.21875 86.699219 L 36.699219 71.132812 L 52.261719 72.613281 L 50.78125 88.179688 Z M 35.21875 86.699219 " clip-rule="nonzero"/></clipPath><clipPath id="50f6e2e298"><path d="M 35.21875 86.699219 L 36.699219 71.132812 L 52.261719 72.613281 L 50.78125 88.179688 Z M 35.21875 86.699219 " clip-rule="nonzero"/></clipPath><clipPath id="c9dbbb3869"><path d="M 40 77 L 53 77 L 53 88 L 40 88 Z M 40 77 " clip-rule="nonzero"/></clipPath><clipPath id="b993157fa6"><path d="M 35.21875 86.699219 L 36.699219 71.132812 L 52.261719 72.613281 L 50.78125 88.179688 Z M 35.21875 86.699219 " clip-rule="nonzero"/></clipPath><clipPath id="1f2f9da672"><path d="M 35.21875 86.699219 L 36.699219 71.132812 L 52.261719 72.613281 L 50.78125 88.179688 Z M 35.21875 86.699219 " clip-rule="nonzero"/></clipPath><clipPath id="2aff557040"><path d="M 35 72 L 53 72 L 53 87 L 35 87 Z M 35 72 " clip-rule="nonzero"/></clipPath><clipPath id="ed35900cf8"><path d="M 35.21875 86.699219 L 36.699219 71.132812 L 52.261719 72.613281 L 50.78125 88.179688 Z M 35.21875 86.699219 " clip-rule="nonzero"/></clipPath><clipPath id="64d7a800df"><path d="M 35.21875 86.699219 L 36.699219 71.132812 L 52.261719 72.613281 L 50.78125 88.179688 Z M 35.21875 86.699219 " clip-rule="nonzero"/></clipPath><clipPath id="7cc87602fd"><path d="M 138.492188 12.648438 L 151 12.648438 L 151 128 L 138.492188 128 Z M 138.492188 12.648438 " clip-rule="nonzero"/></clipPath><clipPath id="869ddf83cb"><path d="M 138.492188 12.648438 L 151 12.648438 L 151 128 L 138.492188 128 Z M 138.492188 12.648438 " clip-rule="nonzero"/></clipPath><clipPath id="6d699ca111"><path d="M 144.667969 115 L 248.894531 115 L 248.894531 131 L 144.667969 131 Z M 144.667969 115 " clip-rule="nonzero"/></clipPath><clipPath id="4b20105984"><path d="M 37.617188 0 L 112.484375 0 L 112.484375 32.757812 L 37.617188 32.757812 Z M 37.617188 0 " clip-rule="nonzero"/></clipPath><clipPath id="adfcbbd561"><path d="M 42 7 L 74 7 L 74 32.757812 L 42 32.757812 Z M 42 7 " clip-rule="nonzero"/></clipPath></defs><g clip-path="url(#c7b8a101a5)"><g clip-path="url(#1bd7174308)"><g clip-path="url(#50f6e2e298)"><path fill="#b48415" d="M 49.328125 83.679688 C 49.617188 83.710938 49.890625 83.789062 50.148438 83.925781 C 50.402344 84.058594 50.625 84.238281 50.808594 84.457031 C 50.992188 84.679688 51.128906 84.929688 51.214844 85.203125 C 51.300781 85.476562 51.328125 85.757812 51.300781 86.042969 C 51.273438 86.328125 51.191406 86.597656 51.058594 86.851562 C 50.921875 87.105469 50.742188 87.324219 50.519531 87.503906 C 50.296875 87.6875 50.046875 87.820312 49.769531 87.90625 C 49.492188 87.988281 49.207031 88.015625 48.917969 87.988281 C 48.628906 87.960938 48.359375 87.878906 48.101562 87.746094 C 47.84375 87.613281 47.625 87.433594 47.441406 87.210938 C 47.253906 86.992188 47.121094 86.742188 47.035156 86.46875 C 46.949219 86.195312 46.917969 85.914062 46.945312 85.628906 C 46.972656 85.34375 47.054688 85.074219 47.191406 84.820312 C 47.328125 84.566406 47.507812 84.347656 47.730469 84.164062 C 47.953125 83.984375 48.203125 83.851562 48.480469 83.765625 C 48.757812 83.683594 49.039062 83.652344 49.328125 83.679688 Z M 49.328125 83.679688 " fill-opacity="1" fill-rule="nonzero"/></g></g></g><g clip-path="url(#c9dbbb3869)"><g clip-path="url(#b993157fa6)"><g clip-path="url(#1f2f9da672)"><path fill="#b48415" d="M 52.085938 77.785156 L 51.796875 80.835938 C 47.6875 80.445312 44.042969 83.425781 43.65625 87.488281 L 40.574219 87.195312 C 41.121094 81.445312 46.273438 77.234375 52.085938 77.785156 Z M 52.085938 77.785156 " fill-opacity="1" fill-rule="nonzero"/></g></g></g><g clip-path="url(#2aff557040)"><g clip-path="url(#ed35900cf8)"><g clip-path="url(#64d7a800df)"><path fill="#b48415" d="M 52.292969 75.632812 C 45.277344 74.964844 39.054688 80.050781 38.394531 86.988281 L 35.21875 86.6875 C 36.046875 78.011719 43.820312 71.65625 52.589844 72.492188 Z M 52.292969 75.632812 " fill-opacity="1" fill-rule="nonzero"/></g></g></g><g fill="#000000" fill-opacity="1"><g transform="translate(42.924502, 105.109979)"><g><path d="M 21.203125 -11.109375 C 21.203125 -8.816406 20.796875 -6.804688 19.984375 -5.078125 C 19.179688 -3.359375 18.023438 -2.03125 16.515625 -1.09375 C 15.003906 -0.15625 13.273438 0.3125 11.328125 0.3125 C 9.390625 0.3125 7.664062 -0.148438 6.15625 -1.078125 C 4.644531 -2.003906 3.472656 -3.328125 2.640625 -5.046875 C 1.804688 -6.765625 1.382812 -8.742188 1.375 -10.984375 L 1.375 -12.140625 C 1.375 -14.429688 1.785156 -16.445312 2.609375 -18.1875 C 3.441406 -19.925781 4.609375 -21.265625 6.109375 -22.203125 C 7.617188 -23.140625 9.34375 -23.609375 11.28125 -23.609375 C 13.226562 -23.609375 14.953125 -23.140625 16.453125 -22.203125 C 17.960938 -21.265625 19.128906 -19.925781 19.953125 -18.1875 C 20.785156 -16.445312 21.203125 -14.4375 21.203125 -12.15625 Z M 16.34375 -12.171875 C 16.34375 -14.609375 15.90625 -16.460938 15.03125 -17.734375 C 14.15625 -19.003906 12.910156 -19.640625 11.296875 -19.640625 C 9.679688 -19.640625 8.4375 -19.007812 7.5625 -17.75 C 6.6875 -16.5 6.242188 -14.664062 6.234375 -12.25 L 6.234375 -11.109375 C 6.234375 -8.734375 6.671875 -6.890625 7.546875 -5.578125 C 8.421875 -4.265625 9.679688 -3.609375 11.328125 -3.609375 C 12.929688 -3.609375 14.164062 -4.238281 15.03125 -5.5 C 15.894531 -6.769531 16.332031 -8.613281 16.34375 -11.03125 Z M 16.34375 -12.171875 "/></g></g><g transform="translate(65.541151, 105.109979)"><g><path d="M 6.03125 -17.296875 L 6.171875 -15.296875 C 7.410156 -16.847656 9.066406 -17.625 11.140625 -17.625 C 12.972656 -17.625 14.335938 -17.082031 15.234375 -16 C 16.128906 -14.925781 16.585938 -13.316406 16.609375 -11.171875 L 16.609375 0 L 12 0 L 12 -11.0625 C 12 -12.039062 11.785156 -12.75 11.359375 -13.1875 C 10.929688 -13.632812 10.222656 -13.859375 9.234375 -13.859375 C 7.929688 -13.859375 6.953125 -13.304688 6.296875 -12.203125 L 6.296875 0 L 1.671875 0 L 1.671875 -17.296875 Z M 6.03125 -17.296875 "/></g></g><g transform="translate(83.887187, 105.109979)"><g><path d="M 6.65625 0 L 2.015625 0 L 2.015625 -24.5625 L 6.65625 -24.5625 Z M 6.65625 0 "/></g></g><g transform="translate(92.572364, 105.109979)"><g><path d="M 6.65625 0 L 2.015625 0 L 2.015625 -17.296875 L 6.65625 -17.296875 Z M 1.75 -21.78125 C 1.75 -22.46875 1.976562 -23.035156 2.4375 -23.484375 C 2.90625 -23.929688 3.535156 -24.15625 4.328125 -24.15625 C 5.117188 -24.15625 5.75 -23.929688 6.21875 -23.484375 C 6.6875 -23.035156 6.921875 -22.46875 6.921875 -21.78125 C 6.921875 -21.070312 6.679688 -20.492188 6.203125 -20.046875 C 5.734375 -19.597656 5.109375 -19.375 4.328125 -19.375 C 3.554688 -19.375 2.929688 -19.597656 2.453125 -20.046875 C 1.984375 -20.492188 1.75 -21.070312 1.75 -21.78125 Z M 1.75 -21.78125 "/></g></g><g transform="translate(101.257541, 105.109979)"><g><path d="M 6.03125 -17.296875 L 6.171875 -15.296875 C 7.410156 -16.847656 9.066406 -17.625 11.140625 -17.625 C 12.972656 -17.625 14.335938 -17.082031 15.234375 -16 C 16.128906 -14.925781 16.585938 -13.316406 16.609375 -11.171875 L 16.609375 0 L 12 0 L 12 -11.0625 C 12 -12.039062 11.785156 -12.75 11.359375 -13.1875 C 10.929688 -13.632812 10.222656 -13.859375 9.234375 -13.859375 C 7.929688 -13.859375 6.953125 -13.304688 6.296875 -12.203125 L 6.296875 0 L 1.671875 0 L 1.671875 -17.296875 Z M 6.03125 -17.296875 "/></g></g><g transform="translate(119.603578, 105.109979)"><g><path d="M 9.734375 0.3125 C 7.203125 0.3125 5.140625 -0.460938 3.546875 -2.015625 C 1.953125 -3.566406 1.15625 -5.640625 1.15625 -8.234375 L 1.15625 -8.6875 C 1.15625 -10.425781 1.488281 -11.976562 2.15625 -13.34375 C 2.832031 -14.71875 3.785156 -15.773438 5.015625 -16.515625 C 6.242188 -17.253906 7.648438 -17.625 9.234375 -17.625 C 11.597656 -17.625 13.457031 -16.875 14.8125 -15.375 C 16.175781 -13.882812 16.859375 -11.769531 16.859375 -9.03125 L 16.859375 -7.140625 L 5.84375 -7.140625 C 5.988281 -6.015625 6.4375 -5.109375 7.1875 -4.421875 C 7.9375 -3.742188 8.890625 -3.40625 10.046875 -3.40625 C 11.828125 -3.40625 13.21875 -4.050781 14.21875 -5.34375 L 16.484375 -2.796875 C 15.796875 -1.816406 14.859375 -1.050781 13.671875 -0.5 C 12.484375 0.0390625 11.171875 0.3125 9.734375 0.3125 Z M 9.21875 -13.875 C 8.289062 -13.875 7.539062 -13.566406 6.96875 -12.953125 C 6.40625 -12.335938 6.046875 -11.453125 5.890625 -10.296875 L 12.3125 -10.296875 L 12.3125 -10.671875 C 12.289062 -11.691406 12.015625 -12.476562 11.484375 -13.03125 C 10.953125 -13.59375 10.195312 -13.875 9.21875 -13.875 Z M 9.21875 -13.875 "/></g></g></g><g fill="#000000" fill-opacity="1"><g transform="translate(137.311276, 105.109979)"><g/></g><g transform="translate(145.468625, 105.109979)"><g/></g></g><g fill="#000000" fill-opacity="1"><g transform="translate(153.63179, 105.109979)"><g><path d="M 15.21875 -4.796875 L 6.8125 -4.796875 L 5.21875 0 L 0.109375 0 L 8.78125 -23.28125 L 13.21875 -23.28125 L 21.9375 0 L 16.84375 0 Z M 8.109375 -8.6875 L 13.921875 -8.6875 L 11 -17.40625 Z M 8.109375 -8.6875 "/></g></g><g transform="translate(175.672625, 105.109979)"><g><path d="M 8.96875 -3.40625 C 9.820312 -3.40625 10.515625 -3.640625 11.046875 -4.109375 C 11.578125 -4.578125 11.851562 -5.203125 11.875 -5.984375 L 16.21875 -5.984375 C 16.207031 -4.804688 15.882812 -3.726562 15.25 -2.75 C 14.625 -1.78125 13.765625 -1.023438 12.671875 -0.484375 C 11.578125 0.046875 10.367188 0.3125 9.046875 0.3125 C 6.578125 0.3125 4.628906 -0.46875 3.203125 -2.03125 C 1.773438 -3.601562 1.0625 -5.78125 1.0625 -8.5625 L 1.0625 -8.859375 C 1.0625 -11.523438 1.769531 -13.648438 3.1875 -15.234375 C 4.601562 -16.828125 6.546875 -17.625 9.015625 -17.625 C 11.179688 -17.625 12.914062 -17.003906 14.21875 -15.765625 C 15.53125 -14.535156 16.195312 -12.898438 16.21875 -10.859375 L 11.875 -10.859375 C 11.851562 -11.753906 11.578125 -12.476562 11.046875 -13.03125 C 10.515625 -13.59375 9.8125 -13.875 8.9375 -13.875 C 7.863281 -13.875 7.050781 -13.484375 6.5 -12.703125 C 5.945312 -11.921875 5.671875 -10.648438 5.671875 -8.890625 L 5.671875 -8.40625 C 5.671875 -6.625 5.941406 -5.34375 6.484375 -4.5625 C 7.035156 -3.789062 7.863281 -3.40625 8.96875 -3.40625 Z M 8.96875 -3.40625 "/></g></g><g transform="translate(192.755073, 105.109979)"><g><path d="M 11.796875 0 C 11.585938 -0.414062 11.4375 -0.929688 11.34375 -1.546875 C 10.21875 -0.304688 8.757812 0.3125 6.96875 0.3125 C 5.269531 0.3125 3.863281 -0.175781 2.75 -1.15625 C 1.644531 -2.132812 1.09375 -3.367188 1.09375 -4.859375 C 1.09375 -6.691406 1.769531 -8.097656 3.125 -9.078125 C 4.488281 -10.054688 6.453125 -10.550781 9.015625 -10.5625 L 11.140625 -10.5625 L 11.140625 -11.5625 C 11.140625 -12.363281 10.9375 -13.003906 10.53125 -13.484375 C 10.125 -13.960938 9.476562 -14.203125 8.59375 -14.203125 C 7.8125 -14.203125 7.195312 -14.015625 6.75 -13.640625 C 6.3125 -13.265625 6.09375 -12.753906 6.09375 -12.109375 L 1.46875 -12.109375 C 1.46875 -13.109375 1.773438 -14.035156 2.390625 -14.890625 C 3.015625 -15.742188 3.890625 -16.410156 5.015625 -16.890625 C 6.148438 -17.378906 7.421875 -17.625 8.828125 -17.625 C 10.960938 -17.625 12.65625 -17.085938 13.90625 -16.015625 C 15.15625 -14.941406 15.78125 -13.4375 15.78125 -11.5 L 15.78125 -4 C 15.789062 -2.351562 16.019531 -1.109375 16.46875 -0.265625 L 16.46875 0 Z M 7.984375 -3.21875 C 8.660156 -3.21875 9.285156 -3.367188 9.859375 -3.671875 C 10.441406 -3.972656 10.867188 -4.378906 11.140625 -4.890625 L 11.140625 -7.875 L 9.421875 -7.875 C 7.109375 -7.875 5.875 -7.070312 5.71875 -5.46875 L 5.703125 -5.203125 C 5.703125 -4.617188 5.90625 -4.140625 6.3125 -3.765625 C 6.71875 -3.398438 7.273438 -3.21875 7.984375 -3.21875 Z M 7.984375 -3.21875 "/></g></g><g transform="translate(210.317364, 105.109979)"><g><path d="M 1.0625 -8.78125 C 1.0625 -11.476562 1.664062 -13.625 2.875 -15.21875 C 4.082031 -16.820312 5.734375 -17.625 7.828125 -17.625 C 9.515625 -17.625 10.910156 -16.992188 12.015625 -15.734375 L 12.015625 -24.5625 L 16.640625 -24.5625 L 16.640625 0 L 12.46875 0 L 12.25 -1.84375 C 11.09375 -0.40625 9.609375 0.3125 7.796875 0.3125 C 5.765625 0.3125 4.132812 -0.488281 2.90625 -2.09375 C 1.675781 -3.695312 1.0625 -5.925781 1.0625 -8.78125 Z M 5.671875 -8.4375 C 5.671875 -6.820312 5.953125 -5.582031 6.515625 -4.71875 C 7.085938 -3.851562 7.910156 -3.421875 8.984375 -3.421875 C 10.410156 -3.421875 11.421875 -4.023438 12.015625 -5.234375 L 12.015625 -12.0625 C 11.429688 -13.257812 10.429688 -13.859375 9.015625 -13.859375 C 6.785156 -13.859375 5.671875 -12.050781 5.671875 -8.4375 Z M 5.671875 -8.4375 "/></g></g><g transform="translate(228.775364, 105.109979)"><g><path d="M 9.734375 0.3125 C 7.203125 0.3125 5.140625 -0.460938 3.546875 -2.015625 C 1.953125 -3.566406 1.15625 -5.640625 1.15625 -8.234375 L 1.15625 -8.6875 C 1.15625 -10.425781 1.488281 -11.976562 2.15625 -13.34375 C 2.832031 -14.71875 3.785156 -15.773438 5.015625 -16.515625 C 6.242188 -17.253906 7.648438 -17.625 9.234375 -17.625 C 11.597656 -17.625 13.457031 -16.875 14.8125 -15.375 C 16.175781 -13.882812 16.859375 -11.769531 16.859375 -9.03125 L 16.859375 -7.140625 L 5.84375 -7.140625 C 5.988281 -6.015625 6.4375 -5.109375 7.1875 -4.421875 C 7.9375 -3.742188 8.890625 -3.40625 10.046875 -3.40625 C 11.828125 -3.40625 13.21875 -4.050781 14.21875 -5.34375 L 16.484375 -2.796875 C 15.796875 -1.816406 14.859375 -1.050781 13.671875 -0.5 C 12.484375 0.0390625 11.171875 0.3125 9.734375 0.3125 Z M 9.21875 -13.875 C 8.289062 -13.875 7.539062 -13.566406 6.96875 -12.953125 C 6.40625 -12.335938 6.046875 -11.453125 5.890625 -10.296875 L 12.3125 -10.296875 L 12.3125 -10.671875 C 12.289062 -11.691406 12.015625 -12.476562 11.484375 -13.03125 C 10.953125 -13.59375 10.195312 -13.875 9.21875 -13.875 Z M 9.21875 -13.875 "/></g></g><g transform="translate(246.481609, 105.109979)"><g><path d="M 6.109375 -17.296875 L 6.25 -15.375 C 7.476562 -16.875 9.132812 -17.625 11.21875 -17.625 C 13.445312 -17.625 14.976562 -16.742188 15.8125 -14.984375 C 17.03125 -16.742188 18.765625 -17.625 21.015625 -17.625 C 22.890625 -17.625 24.285156 -17.078125 25.203125 -15.984375 C 26.117188 -14.890625 26.578125 -13.242188 26.578125 -11.046875 L 26.578125 0 L 21.9375 0 L 21.9375 -11.03125 C 21.9375 -12.007812 21.742188 -12.722656 21.359375 -13.171875 C 20.972656 -13.628906 20.296875 -13.859375 19.328125 -13.859375 C 17.941406 -13.859375 16.984375 -13.195312 16.453125 -11.875 L 16.46875 0 L 11.84375 0 L 11.84375 -11.015625 C 11.84375 -12.015625 11.644531 -12.738281 11.25 -13.1875 C 10.863281 -13.632812 10.195312 -13.859375 9.25 -13.859375 C 7.9375 -13.859375 6.984375 -13.316406 6.390625 -12.234375 L 6.390625 0 L 1.78125 0 L 1.78125 -17.296875 Z M 6.109375 -17.296875 "/></g></g><g transform="translate(274.840391, 105.109979)"><g><path d="M 8.234375 -6.546875 L 11.4375 -17.296875 L 16.390625 -17.296875 L 9.4375 2.6875 L 9.046875 3.59375 C 8.015625 5.851562 6.3125 6.984375 3.9375 6.984375 C 3.257812 6.984375 2.578125 6.882812 1.890625 6.6875 L 1.890625 3.1875 L 2.59375 3.203125 C 3.46875 3.203125 4.117188 3.066406 4.546875 2.796875 C 4.984375 2.535156 5.320312 2.09375 5.5625 1.46875 L 6.109375 0.046875 L 0.046875 -17.296875 L 5.015625 -17.296875 Z M 8.234375 -6.546875 "/></g></g></g><g fill="#000000" fill-opacity="1"><g transform="translate(38.697325, 76.899664)"><g><path d="M 28.8125 -44.265625 L 28.8125 -35.40625 L 13.3125 -35.40625 L 13.3125 -26.609375 L 27.640625 -26.609375 L 27.640625 -17.765625 L 13.3125 -17.765625 L 13.3125 0 L 3.21875 0 L 3.21875 -44.265625 Z M 28.8125 -44.265625 "/></g></g></g><g fill="#000000" fill-opacity="1"><g transform="translate(69.113976, 76.899664)"><g><path d="M 4.125 -42.859375 C 5.238281 -43.972656 6.5625 -44.53125 8.09375 -44.53125 C 9.632812 -44.53125 10.957031 -43.972656 12.0625 -42.859375 C 13.175781 -41.753906 13.734375 -40.429688 13.734375 -38.890625 C 13.734375 -37.359375 13.175781 -36.035156 12.0625 -34.921875 C 10.957031 -33.816406 9.632812 -33.265625 8.09375 -33.265625 C 6.5625 -33.265625 5.238281 -33.816406 4.125 -34.921875 C 3.019531 -36.035156 2.46875 -37.359375 2.46875 -38.890625 C 2.46875 -40.429688 3.019531 -41.753906 4.125 -42.859375 Z M 3.21875 -27.53125 L 3.21875 0 L 12.71875 0 L 12.71875 -27.53125 Z M 3.21875 -27.53125 "/></g></g></g><g fill="#000000" fill-opacity="1"><g transform="translate(85.314733, 76.899664)"><g><path d="M 4.828125 -27.53125 L 4.828125 -37.78125 L 14.328125 -37.78125 L 14.328125 -27.53125 L 20.125 -27.53125 L 20.125 -20.28125 L 14.328125 -20.28125 L 14.328125 -11.53125 C 14.328125 -8.988281 15.039062 -7.71875 16.46875 -7.71875 C 16.832031 -7.71875 17.207031 -7.789062 17.59375 -7.9375 C 17.988281 -8.082031 18.296875 -8.226562 18.515625 -8.375 L 18.828125 -8.578125 L 21.1875 -0.90625 C 19.15625 0.238281 16.832031 0.8125 14.21875 0.8125 C 12.425781 0.8125 10.882812 0.5 9.59375 -0.125 C 8.3125 -0.757812 7.335938 -1.601562 6.671875 -2.65625 C 6.015625 -3.707031 5.539062 -4.8125 5.25 -5.96875 C 4.96875 -7.132812 4.828125 -8.382812 4.828125 -9.71875 L 4.828125 -20.28125 L 0.859375 -20.28125 L 0.859375 -27.53125 Z M 4.828125 -27.53125 "/></g></g></g><g fill="#000000" fill-opacity="1"><g transform="translate(106.504458, 76.899664)"><g><path d="M 0 0.8125 L 27.53125 0.8125 L 27.53125 5.359375 L 0 5.359375 Z M 0 0.8125 "/></g></g></g><g fill="#000000" fill-opacity="1"><g transform="translate(134.024283, 76.899664)"><g><path d="M 13.3125 -44.265625 L 13.3125 -8.859375 L 28.546875 -8.859375 L 28.546875 0 L 3.21875 0 L 3.21875 -44.265625 Z M 13.3125 -44.265625 "/></g></g></g><g fill="#000000" fill-opacity="1"><g transform="translate(164.333646, 76.899664)"><g><path d="M 31.0625 -12.453125 L 11.109375 -12.453125 C 11.109375 -10.515625 11.734375 -9.082031 12.984375 -8.15625 C 14.234375 -7.226562 15.59375 -6.765625 17.0625 -6.765625 C 18.601562 -6.765625 19.816406 -6.96875 20.703125 -7.375 C 21.597656 -7.789062 22.617188 -8.601562 23.765625 -9.8125 L 30.640625 -6.390625 C 27.773438 -1.585938 23.015625 0.8125 16.359375 0.8125 C 12.210938 0.8125 8.65625 -0.609375 5.6875 -3.453125 C 2.71875 -6.296875 1.234375 -9.722656 1.234375 -13.734375 C 1.234375 -17.742188 2.71875 -21.175781 5.6875 -24.03125 C 8.65625 -26.894531 12.210938 -28.328125 16.359375 -28.328125 C 20.722656 -28.328125 24.273438 -27.066406 27.015625 -24.546875 C 29.753906 -22.023438 31.125 -18.421875 31.125 -13.734375 C 31.125 -13.085938 31.101562 -12.660156 31.0625 -12.453125 Z M 11.375 -17.703125 L 21.84375 -17.703125 C 21.625 -19.140625 21.054688 -20.238281 20.140625 -21 C 19.234375 -21.769531 18.066406 -22.15625 16.640625 -22.15625 C 15.054688 -22.15625 13.800781 -21.742188 12.875 -20.921875 C 11.945312 -20.097656 11.445312 -19.023438 11.375 -17.703125 Z M 11.375 -17.703125 "/></g></g></g><g fill="#000000" fill-opacity="1"><g transform="translate(196.681507, 76.899664)"><g><path d="M 5.09375 -3.40625 C 2.519531 -6.21875 1.234375 -9.660156 1.234375 -13.734375 C 1.234375 -17.816406 2.519531 -21.269531 5.09375 -24.09375 C 7.664062 -26.914062 10.941406 -28.328125 14.921875 -28.328125 C 18.566406 -28.328125 21.570312 -27.179688 23.9375 -24.890625 L 23.9375 -27.53125 L 33.421875 -27.53125 L 33.421875 0 L 24.03125 0 L 24.03125 -3.109375 L 23.9375 -3.109375 C 21.570312 -0.492188 18.566406 0.8125 14.921875 0.8125 C 10.941406 0.8125 7.664062 -0.59375 5.09375 -3.40625 Z M 13.171875 -18.40625 C 11.941406 -17.1875 11.328125 -15.628906 11.328125 -13.734375 C 11.328125 -11.835938 11.914062 -10.289062 13.09375 -9.09375 C 14.269531 -7.894531 15.828125 -7.296875 17.765625 -7.296875 C 19.617188 -7.296875 21.144531 -7.90625 22.34375 -9.125 C 23.539062 -10.34375 24.140625 -11.878906 24.140625 -13.734375 C 24.140625 -15.628906 23.519531 -17.1875 22.28125 -18.40625 C 21.050781 -19.625 19.546875 -20.234375 17.765625 -20.234375 C 15.941406 -20.234375 14.410156 -19.625 13.171875 -18.40625 Z M 13.171875 -18.40625 "/></g></g></g><g fill="#000000" fill-opacity="1"><g transform="translate(233.320948, 76.899664)"><g><path d="M 3.21875 0 L 3.21875 -27.53125 L 12.71875 -27.53125 L 12.71875 -23.5625 L 12.828125 -23.5625 C 12.898438 -23.695312 13.015625 -23.867188 13.171875 -24.078125 C 13.335938 -24.296875 13.6875 -24.671875 14.21875 -25.203125 C 14.757812 -25.742188 15.332031 -26.226562 15.9375 -26.65625 C 16.539062 -27.09375 17.328125 -27.476562 18.296875 -27.8125 C 19.265625 -28.15625 20.25 -28.328125 21.25 -28.328125 C 22.28125 -28.328125 23.296875 -28.179688 24.296875 -27.890625 C 25.304688 -27.609375 26.039062 -27.328125 26.5 -27.046875 L 27.25 -26.609375 L 23.28125 -18.5625 C 22.101562 -19.5625 20.457031 -20.0625 18.34375 -20.0625 C 17.207031 -20.0625 16.226562 -19.8125 15.40625 -19.3125 C 14.582031 -18.8125 14 -18.203125 13.65625 -17.484375 C 13.3125 -16.773438 13.066406 -16.171875 12.921875 -15.671875 C 12.785156 -15.171875 12.71875 -14.773438 12.71875 -14.484375 L 12.71875 0 Z M 3.21875 0 "/></g></g></g><g fill="#000000" fill-opacity="1"><g transform="translate(260.036097, 76.899664)"><g><path d="M 3.21875 0 L 3.21875 -27.53125 L 12.71875 -27.53125 L 12.71875 -24.625 L 12.828125 -24.625 C 15.296875 -27.09375 17.925781 -28.328125 20.71875 -28.328125 C 22.070312 -28.328125 23.421875 -28.144531 24.765625 -27.78125 C 26.109375 -27.425781 27.394531 -26.875 28.625 -26.125 C 29.863281 -25.375 30.863281 -24.3125 31.625 -22.9375 C 32.394531 -21.5625 32.78125 -19.960938 32.78125 -18.140625 L 32.78125 0 L 23.28125 0 L 23.28125 -15.5625 C 23.28125 -16.988281 22.820312 -18.238281 21.90625 -19.3125 C 21 -20.382812 19.8125 -20.921875 18.34375 -20.921875 C 16.914062 -20.921875 15.617188 -20.363281 14.453125 -19.25 C 13.296875 -18.144531 12.71875 -16.914062 12.71875 -15.5625 L 12.71875 0 Z M 3.21875 0 "/></g></g></g><g clip-path="url(#7cc87602fd)"><path fill="#000000" d="M 150.820312 21.210938 C 150.820312 21.003906 150.652344 20.835938 150.445312 20.835938 L 149.734375 20.835938 L 149.734375 13.199219 C 149.734375 12.992188 149.566406 12.824219 149.359375 12.824219 L 143.078125 12.824219 C 142.871094 12.824219 142.703125 12.992188 142.703125 13.199219 L 142.703125 20.835938 L 141.992188 20.835938 C 141.785156 20.835938 141.617188 21.003906 141.617188 21.210938 L 141.617188 23.21875 C 139.863281 23.40625 138.492188 24.894531 138.492188 26.699219 L 138.492188 63.25 C 138.492188 65.050781 139.863281 66.539062 141.617188 66.726562 L 141.617188 111.535156 C 141.617188 111.550781 141.621094 111.566406 141.625 111.582031 C 141.625 111.59375 141.621094 111.605469 141.625 111.617188 L 144.5625 124.5625 L 145.042969 126.6875 C 145.171875 127.25 145.640625 127.628906 146.21875 127.628906 C 146.792969 127.628906 147.265625 127.25 147.390625 126.6875 L 147.875 124.566406 C 147.875 124.566406 147.875 124.5625 147.875 124.5625 L 150.8125 111.617188 C 150.8125 111.605469 150.808594 111.59375 150.8125 111.582031 C 150.8125 111.566406 150.820312 111.550781 150.820312 111.535156 Z M 150.820312 21.210938 " fill-opacity="1" fill-rule="nonzero"/></g><path fill="#000000" d="M 145.492188 26.699219 L 145.492188 63.25 C 145.492188 65.050781 144.121094 66.539062 142.367188 66.726562 L 142.367188 111.160156 L 150.070312 111.160156 L 150.070312 21.585938 L 142.367188 21.585938 L 142.367188 23.21875 C 144.121094 23.40625 145.492188 24.894531 145.492188 26.699219 Z M 145.492188 26.699219 " fill-opacity="1" fill-rule="nonzero"/><path fill="#d5a51e" d="M 149.976562 111.910156 L 147.207031 124.105469 L 145.226562 124.105469 L 142.460938 111.910156 Z M 148.984375 13.574219 L 143.453125 13.574219 L 143.453125 20.773438 L 148.984375 20.773438 Z M 148.984375 13.574219 " fill-opacity="1" fill-rule="nonzero"/><path fill="#d5a51e" d="M 145.773438 126.523438 L 145.398438 124.855469 L 147.039062 124.855469 L 146.660156 126.523438 C 146.601562 126.785156 146.394531 126.875 146.21875 126.875 C 146.042969 126.875 145.832031 126.785156 145.773438 126.523438 Z M 141.992188 65.996094 C 143.507812 65.996094 144.742188 64.765625 144.742188 63.25 L 144.742188 26.699219 C 144.742188 25.183594 143.507812 23.949219 141.992188 23.949219 C 140.476562 23.949219 139.242188 25.183594 139.242188 26.699219 L 139.242188 63.25 C 139.242188 64.765625 140.476562 65.996094 141.992188 65.996094 Z M 141.992188 65.996094 " fill-opacity="1" fill-rule="nonzero"/><g clip-path="url(#869ddf83cb)"><path fill="#000000" d="M 150.820312 21.210938 C 150.820312 21.003906 150.652344 20.835938 150.445312 20.835938 L 149.734375 20.835938 L 149.734375 13.199219 C 149.734375 12.992188 149.566406 12.824219 149.359375 12.824219 L 143.078125 12.824219 C 142.871094 12.824219 142.703125 12.992188 142.703125 13.199219 L 142.703125 20.835938 L 141.992188 20.835938 C 141.785156 20.835938 141.617188 21.003906 141.617188 21.210938 L 141.617188 23.21875 C 139.863281 23.40625 138.492188 24.894531 138.492188 26.699219 L 138.492188 63.25 C 138.492188 65.050781 139.863281 66.539062 141.617188 66.726562 L 141.617188 111.535156 C 141.617188 111.550781 141.621094 111.566406 141.625 111.582031 C 141.625 111.59375 141.621094 111.605469 141.625 111.617188 L 144.5625 124.5625 L 145.042969 126.6875 C 145.171875 127.25 145.640625 127.628906 146.21875 127.628906 C 146.792969 127.628906 147.265625 127.25 147.390625 126.6875 L 147.875 124.566406 C 147.875 124.566406 147.875 124.5625 147.875 124.5625 L 150.8125 111.617188 C 150.8125 111.605469 150.808594 111.59375 150.8125 111.582031 C 150.8125 111.566406 150.820312 111.550781 150.820312 111.535156 Z M 143.453125 13.574219 L 148.984375 13.574219 L 148.984375 20.773438 L 143.453125 20.773438 Z M 139.242188 63.25 L 139.242188 26.699219 C 139.242188 25.183594 140.476562 23.949219 141.992188 23.949219 C 143.507812 23.949219 144.742188 25.183594 144.742188 26.699219 L 144.742188 63.25 C 144.742188 64.765625 143.507812 65.996094 141.992188 65.996094 C 140.476562 65.996094 139.242188 64.765625 139.242188 63.25 Z M 146.660156 126.523438 C 146.601562 126.785156 146.394531 126.875 146.21875 126.875 C 146.042969 126.875 145.832031 126.785156 145.773438 126.523438 L 145.398438 124.855469 L 147.039062 124.855469 Z M 147.207031 124.105469 L 145.226562 124.105469 L 142.460938 111.910156 L 149.976562 111.910156 Z M 142.367188 111.160156 L 142.367188 66.726562 C 144.121094 66.539062 145.492188 65.050781 145.492188 63.25 L 145.492188 26.699219 C 145.492188 24.894531 144.121094 23.40625 142.367188 23.21875 L 142.367188 21.585938 L 150.070312 21.585938 L 150.070312 111.160156 Z M 142.367188 111.160156 " fill-opacity="1" fill-rule="nonzero"/></g><g clip-path="url(#6d699ca111)"><path fill="#000000" d="M 144.664062 127.277344 L 144.886719 127.242188 L 145.496094 127.140625 C 147.597656 126.480469 149.140625 126.042969 150.128906 125.824219 C 154.019531 125.1875 156.679688 124.679688 158.117188 124.304688 L 165.777344 122.230469 C 166.640625 122.085938 169.859375 121.839844 175.429688 121.492188 C 177.992188 121.320312 179.703125 121.257812 180.5625 121.292969 C 182.304688 121.351562 185.242188 121.96875 189.378906 123.144531 C 189.964844 123.347656 190.753906 123.695312 191.742188 124.179688 L 198.746094 127.792969 C 199.445312 128.140625 200.113281 128.378906 200.742188 128.507812 L 204.308594 129.074219 L 207.398438 129.773438 C 208.558594 129.941406 209.511719 130.046875 210.265625 130.089844 C 210.660156 130.113281 211.0625 130.109375 211.472656 130.074219 L 213.292969 129.859375 C 214.71875 129.792969 215.808594 129.722656 216.5625 129.644531 C 217.40625 129.5625 218.007812 129.488281 218.371094 129.425781 C 218.804688 129.375 220.253906 129.058594 222.71875 128.476562 C 223.410156 128.3125 223.984375 128.136719 224.441406 127.945312 C 234.601562 123.078125 239.949219 120.546875 240.484375 120.355469 C 241.042969 120.027344 243.734375 118.988281 248.566406 117.246094 L 248.898438 116.878906 C 248.707031 116.828125 248.367188 116.796875 247.882812 116.785156 C 244.820312 116.832031 242.285156 117.164062 240.265625 117.785156 C 237.160156 118.558594 231.265625 120.402344 222.578125 123.320312 C 220.058594 123.671875 218.378906 123.871094 217.542969 123.925781 C 216.445312 123.976562 214.90625 123.964844 212.929688 123.894531 L 211.246094 123.957031 C 210.988281 123.980469 210.167969 123.851562 208.789062 123.574219 L 205.851562 122.644531 L 202.097656 121.769531 C 198.050781 119.398438 194.445312 117.746094 191.28125 116.816406 C 188.820312 116.277344 186.59375 115.894531 184.59375 115.664062 C 183.660156 115.550781 182.628906 115.457031 181.496094 115.386719 C 181.089844 115.367188 180.527344 115.394531 179.800781 115.472656 C 171.550781 116.640625 166.40625 117.542969 164.359375 118.179688 C 163.554688 118.414062 161.054688 119.503906 156.859375 121.445312 L 149.542969 124.359375 C 148.609375 124.796875 147.21875 125.6875 145.367188 127.03125 C 145.203125 127.144531 144.96875 127.226562 144.664062 127.277344 " fill-opacity="1" fill-rule="nonzero"/></g><g clip-path="url(#4b20105984)"><path fill="#323232" d="M 42.703125 31.078125 C 42.914062 31.433594 43.375 31.355469 43.746094 31.265625 C 44.539062 31.074219 45.113281 30.492188 45.820312 30.046875 C 45.882812 30.859375 45.734375 31.640625 45.976562 32.382812 C 46.054688 32.617188 46.035156 32.984375 46.363281 33.019531 C 46.6875 33.058594 46.765625 32.726562 46.886719 32.5 C 47.363281 31.632812 47.4375 30.6875 47.421875 29.628906 C 47.871094 30.128906 48.113281 30.683594 48.566406 31.054688 C 48.75 31.207031 48.898438 31.449219 49.164062 31.441406 C 49.433594 31.429688 49.726562 31.667969 49.972656 31.359375 C 50.21875 31.042969 49.964844 30.824219 49.84375 30.578125 C 49.386719 29.660156 48.65625 28.90625 48.246094 27.957031 C 48.1875 27.695312 48.128906 27.433594 48.070312 27.171875 C 48.96875 25.917969 48.945312 25.300781 47.949219 23.976562 C 48.132812 23.679688 48.09375 23.351562 48.078125 23.023438 C 48.164062 22.320312 48.253906 21.613281 48.339844 20.90625 C 48.386719 20.601562 48.429688 20.296875 48.472656 19.996094 C 48.566406 19.136719 48.65625 18.277344 48.746094 17.417969 C 48.75 17.070312 48.753906 16.722656 48.757812 16.371094 C 48.914062 15.703125 48.988281 15.023438 49.003906 14.339844 C 49.015625 13.984375 49.023438 13.625 49.035156 13.269531 C 48.867188 13.105469 48.71875 12.925781 48.566406 12.75 C 48.71875 12.925781 48.867188 13.105469 49.035156 13.269531 C 49.238281 13.054688 49.171875 12.777344 49.179688 12.527344 C 49.191406 12.082031 49.394531 11.902344 49.824219 11.953125 C 51.378906 12.324219 52.929688 12.722656 54.488281 13.058594 C 55.652344 13.308594 55.683594 13.273438 55.648438 14.417969 C 55.597656 15.976562 55.679688 17.539062 55.65625 19.097656 C 55.628906 20.972656 55.433594 22.839844 55.347656 24.710938 C 55.300781 25.753906 55.335938 26.800781 55.300781 27.84375 C 55.292969 28.136719 55.507812 28.148438 55.65625 28.238281 C 57.023438 29.097656 58.535156 29.617188 60.050781 30.121094 C 61.671875 30.660156 63.3125 31.121094 64.984375 31.492188 C 67.253906 31.996094 69.539062 32.371094 71.863281 32.441406 C 74.511719 32.519531 77.167969 32.628906 79.808594 32.363281 C 84.453125 31.894531 88.957031 30.800781 93.238281 28.90625 C 94.890625 28.171875 94.914062 28.136719 94.824219 26.347656 C 94.765625 25.074219 94.710938 23.804688 94.605469 22.53125 C 94.488281 21.128906 94.632812 19.707031 94.53125 18.300781 C 94.425781 16.789062 94.503906 15.289062 94.546875 13.785156 C 94.554688 13.367188 94.722656 13.242188 95.039062 13.171875 C 96.835938 12.761719 98.632812 12.355469 100.429688 11.960938 C 102.082031 11.597656 103.730469 11.226562 105.386719 10.898438 C 107.4375 10.488281 109.507812 10.167969 111.542969 9.679688 C 111.972656 9.578125 112.390625 9.464844 112.808594 9.242188 C 112.40625 8.875 111.921875 8.863281 111.484375 8.757812 C 109.101562 8.167969 106.714844 7.589844 104.320312 7.042969 C 101.566406 6.414062 98.871094 5.578125 96.125 4.921875 C 92.789062 4.128906 89.46875 3.277344 86.128906 2.523438 C 84.050781 2.050781 81.976562 1.574219 79.886719 1.152344 C 78.386719 0.847656 76.882812 0.566406 75.414062 0.121094 C 75.109375 0.0273438 74.816406 0.0820312 74.507812 0.167969 C 71.945312 0.875 69.328125 1.355469 66.742188 1.953125 C 64.230469 2.53125 61.703125 3.042969 59.207031 3.671875 C 57.648438 4.066406 56.09375 4.460938 54.53125 4.832031 C 52.914062 5.210938 51.292969 5.589844 49.703125 6.0625 C 47.511719 6.710938 45.273438 7.152344 43.050781 7.675781 C 41.257812 8.09375 39.476562 8.574219 37.691406 9.023438 C 37.558594 9.054688 37.433594 9.085938 37.292969 9.3125 C 40.730469 10.289062 44.265625 10.714844 47.707031 11.542969 C 47.707031 11.683594 47.710938 11.820312 47.710938 11.960938 C 47.699219 12.273438 47.5 12.550781 47.574219 12.871094 C 47.617188 13.667969 47.207031 14.4375 47.429688 15.246094 C 47.21875 15.5 47.3125 15.804688 47.304688 16.089844 C 47.226562 17.070312 46.933594 18.035156 47.042969 19.039062 C 47 19.308594 46.953125 19.582031 46.90625 19.851562 C 46.777344 20.898438 46.648438 21.941406 46.515625 22.984375 C 46.472656 23.320312 46.523438 23.664062 46.382812 23.980469 C 45.835938 24.5625 45.335938 25.144531 45.398438 26.042969 C 45.425781 26.496094 45.621094 26.832031 45.839844 27.183594 C 45.828125 27.480469 45.535156 27.59375 45.433594 27.832031 C 44.949219 28.636719 44.304688 29.292969 43.546875 29.847656 C 43.386719 29.964844 43.242188 30.105469 43.109375 30.25 C 42.886719 30.488281 42.507812 30.753906 42.703125 31.078125 Z M 42.703125 31.078125 " fill-opacity="1" fill-rule="nonzero"/></g><path fill="#000000" d="M 93.917969 26.105469 C 93.917969 26.460938 93.898438 26.820312 93.921875 27.171875 C 93.949219 27.542969 93.804688 27.75 93.464844 27.882812 C 92.601562 28.222656 91.757812 28.632812 90.878906 28.917969 C 87.738281 29.941406 84.589844 30.886719 81.273438 31.238281 C 79.074219 31.472656 76.871094 31.730469 74.664062 31.679688 C 72.976562 31.640625 71.273438 31.570312 69.578125 31.347656 C 67.511719 31.074219 65.457031 30.753906 63.445312 30.214844 C 61.132812 29.597656 58.863281 28.835938 56.675781 27.847656 C 56.398438 27.722656 56.246094 27.605469 56.234375 27.277344 C 56.179688 25.675781 56.28125 24.078125 56.417969 22.488281 C 56.542969 20.988281 56.503906 19.488281 56.5625 17.988281 C 56.613281 16.683594 56.539062 15.371094 56.507812 14.0625 C 56.496094 13.644531 56.625 13.5 57.0625 13.617188 C 58.34375 13.957031 59.632812 14.285156 60.921875 14.59375 C 64.996094 15.566406 69.042969 16.625 73.058594 17.800781 C 74.230469 18.144531 75.335938 18.375 76.597656 17.957031 C 78.738281 17.238281 80.949219 16.738281 83.128906 16.140625 C 86.378906 15.253906 89.652344 14.464844 92.921875 13.660156 C 93.511719 13.515625 93.667969 13.625 93.648438 14.21875 C 93.605469 15.566406 93.570312 16.914062 93.605469 18.257812 C 93.675781 20.875 93.800781 23.492188 93.898438 26.105469 C 93.90625 26.105469 93.914062 26.105469 93.917969 26.105469 Z M 47.949219 10.65625 C 46.003906 10.238281 44.054688 9.824219 42.109375 9.414062 C 41.96875 9.382812 41.742188 9.460938 41.746094 9.234375 C 41.75 9.046875 41.949219 9.042969 42.105469 9.011719 C 42.886719 8.847656 43.671875 8.707031 44.441406 8.5 C 46.277344 8.011719 48.121094 7.53125 49.9375 6.972656 C 51.566406 6.472656 53.238281 6.113281 54.890625 5.695312 C 57.183594 5.113281 59.472656 4.496094 61.777344 3.960938 C 63.820312 3.488281 65.898438 3.160156 67.933594 2.660156 C 70.25 2.089844 72.632812 1.796875 74.882812 0.964844 C 75 0.917969 75.097656 0.941406 75.203125 0.988281 C 76.207031 1.441406 77.304688 1.53125 78.359375 1.765625 C 82.546875 2.707031 86.75 3.585938 90.921875 4.609375 C 94.039062 5.375 97.183594 6.054688 100.261719 6.976562 C 102.832031 7.746094 105.414062 8.460938 108.039062 9.007812 C 108.191406 9.042969 108.390625 9.039062 108.40625 9.222656 C 108.425781 9.453125 108.191406 9.40625 108.058594 9.433594 C 106.871094 9.691406 105.683594 9.929688 104.496094 10.1875 C 102.464844 10.632812 100.441406 11.128906 98.402344 11.523438 C 95.207031 12.136719 92.046875 12.925781 88.882812 13.671875 C 86.769531 14.164062 84.675781 14.726562 82.582031 15.296875 C 80.292969 15.921875 78.015625 16.589844 75.734375 17.234375 C 75.382812 17.335938 75.019531 17.347656 74.675781 17.261719 C 73.710938 17.03125 72.757812 16.757812 71.800781 16.492188 C 69.566406 15.875 67.34375 15.234375 65.105469 14.640625 C 63.332031 14.171875 61.535156 13.789062 59.765625 13.3125 C 57.347656 12.664062 54.890625 12.195312 52.453125 11.640625 C 53.191406 11.539062 53.929688 11.445312 54.664062 11.347656 C 55.011719 11.304688 55.355469 11.265625 55.703125 11.226562 C 56.515625 11.105469 57.324219 10.984375 58.136719 10.859375 C 58.492188 10.929688 58.828125 10.863281 59.152344 10.722656 C 60.109375 10.707031 61.050781 10.570312 61.984375 10.347656 C 62.390625 10.324219 62.8125 10.386719 63.199219 10.199219 C 64.046875 10.0625 64.894531 9.925781 65.742188 9.789062 C 66.148438 9.867188 66.515625 9.652344 66.910156 9.648438 C 69.023438 9.3125 71.148438 9.046875 73.246094 8.613281 C 74.15625 8.613281 75.066406 8.621094 75.976562 8.613281 C 76.863281 8.605469 77.566406 8.164062 77.59375 7.621094 C 77.617188 7.0625 76.90625 6.4375 76.101562 6.34375 C 75.582031 6.285156 75.058594 6.226562 74.535156 6.230469 C 73.785156 6.238281 73.183594 6.59375 72.695312 7.148438 C 71.621094 7.089844 70.613281 7.484375 69.5625 7.617188 C 68.996094 7.691406 68.40625 7.648438 67.859375 7.855469 C 67.46875 7.929688 67.078125 8 66.6875 8.074219 C 65.867188 8.117188 65.070312 8.304688 64.269531 8.46875 C 63.871094 8.527344 63.46875 8.585938 63.070312 8.644531 C 62.15625 8.667969 61.269531 8.902344 60.367188 9.042969 C 59.914062 8.957031 59.523438 9.203125 59.105469 9.300781 C 58.351562 9.222656 57.621094 9.359375 56.890625 9.535156 C 56.859375 9.507812 56.832031 9.46875 56.800781 9.464844 C 56.742188 9.460938 56.726562 9.496094 56.765625 9.546875 L 56.777344 9.535156 C 56.460938 9.566406 56.136719 9.546875 55.847656 9.71875 C 54.726562 9.820312 53.601562 9.886719 52.492188 10.105469 C 52.226562 10.109375 51.957031 10.113281 51.691406 10.117188 C 51.238281 10.175781 50.816406 10.40625 50.34375 10.367188 C 49.566406 10.300781 48.855469 10.632812 48.113281 10.773438 C 48.058594 10.730469 48.007812 10.667969 47.949219 10.65625 Z M 47.949219 10.65625 " fill-opacity="1" fill-rule="nonzero"/><g clip-path="url(#adfcbbd561)"><path fill="#d5a51e" d="M 48.25 27.957031 C 48.660156 28.90625 49.390625 29.660156 49.847656 30.578125 C 49.96875 30.820312 50.222656 31.042969 49.972656 31.359375 C 49.730469 31.667969 49.433594 31.429688 49.167969 31.441406 C 48.902344 31.449219 48.753906 31.207031 48.570312 31.054688 C 48.117188 30.679688 47.875 30.125 47.425781 29.628906 C 47.441406 30.6875 47.363281 31.632812 46.890625 32.5 C 46.765625 32.726562 46.6875 33.058594 46.367188 33.019531 C 46.035156 32.984375 46.054688 32.617188 45.980469 32.382812 C 45.738281 31.640625 45.886719 30.855469 45.824219 30.046875 C 45.117188 30.492188 44.539062 31.074219 43.75 31.265625 C 43.378906 31.355469 42.917969 31.433594 42.707031 31.078125 C 42.511719 30.753906 42.890625 30.488281 43.109375 30.25 C 43.242188 30.105469 43.386719 29.964844 43.546875 29.847656 C 44.300781 29.292969 44.949219 28.636719 45.433594 27.828125 C 46.359375 28.121094 47.292969 28.257812 48.25 27.957031 Z M 47.953125 23.976562 C 48.949219 25.300781 48.972656 25.917969 48.074219 27.171875 C 47.328125 27.253906 46.585938 27.367188 45.839844 27.183594 C 45.617188 26.832031 45.425781 26.496094 45.394531 26.042969 C 45.335938 25.144531 45.835938 24.5625 46.382812 23.980469 C 46.90625 23.980469 47.429688 23.980469 47.953125 23.976562 Z M 50.34375 10.363281 C 50.816406 10.402344 51.238281 10.171875 51.691406 10.113281 C 51.707031 10.699219 51.066406 11.058594 51.160156 11.667969 C 50.757812 11.949219 50.234375 11.6875 49.828125 11.953125 C 49.394531 11.902344 49.191406 12.082031 49.183594 12.527344 C 49.175781 12.777344 49.242188 13.054688 49.039062 13.269531 C 48.59375 12.832031 48.265625 12.28125 47.710938 11.960938 C 47.707031 11.824219 47.707031 11.683594 47.707031 11.542969 C 47.839844 11.285156 47.976562 11.027344 48.113281 10.765625 C 48.855469 10.628906 49.5625 10.292969 50.34375 10.363281 Z M 48.75 17.417969 C 48.660156 18.277344 48.570312 19.136719 48.476562 19.996094 C 48 19.675781 47.519531 19.355469 47.039062 19.039062 C 46.929688 18.035156 47.226562 17.074219 47.304688 16.089844 C 47.898438 16.414062 48.210938 17.039062 48.75 17.417969 Z M 48.34375 20.910156 C 48.257812 21.613281 48.167969 22.320312 48.078125 23.027344 C 47.554688 23.226562 47.035156 23.035156 46.515625 22.988281 C 46.644531 21.941406 46.777344 20.898438 46.90625 19.855469 C 47.386719 20.203125 47.867188 20.558594 48.34375 20.910156 Z M 47.429688 15.246094 C 47.207031 14.441406 47.617188 13.671875 47.574219 12.875 C 48.148438 13.265625 48.441406 13.9375 49.007812 14.339844 C 48.992188 15.027344 48.914062 15.703125 48.761719 16.375 C 48.316406 15.996094 47.875 15.621094 47.429688 15.246094 Z M 51.835938 11.652344 C 52.054688 11.136719 52.273438 10.621094 52.488281 10.101562 C 53.597656 9.886719 54.726562 9.816406 55.847656 9.714844 C 55.496094 10.289062 55.132812 10.855469 54.664062 11.34375 C 53.925781 11.441406 53.1875 11.539062 52.449219 11.636719 C 52.246094 11.640625 52.039062 11.648438 51.835938 11.652344 Z M 66.90625 9.644531 C 67.09375 8.980469 67.609375 8.488281 67.855469 7.855469 C 68.40625 7.648438 68.992188 7.6875 69.5625 7.617188 C 70.609375 7.480469 71.617188 7.085938 72.695312 7.144531 C 72.441406 7.679688 72.535156 8.097656 73.105469 8.351562 C 73.226562 8.402344 73.246094 8.5 73.242188 8.613281 C 71.144531 9.042969 69.019531 9.308594 66.90625 9.644531 Z M 61.980469 10.347656 C 61.050781 10.570312 60.109375 10.707031 59.148438 10.722656 C 59.496094 10.121094 60.0625 9.675781 60.367188 9.042969 C 61.265625 8.902344 62.152344 8.667969 63.070312 8.644531 C 62.707031 9.210938 62.34375 9.777344 61.980469 10.347656 Z M 65.742188 9.789062 C 64.890625 9.925781 64.042969 10.0625 63.195312 10.199219 C 63.53125 9.609375 64.027344 9.117188 64.265625 8.464844 C 65.070312 8.304688 65.867188 8.117188 66.6875 8.070312 C 66.371094 8.640625 66.054688 9.214844 65.742188 9.789062 Z M 56.773438 9.535156 C 56.773438 9.535156 56.761719 9.546875 56.761719 9.546875 L 56.824219 9.523438 C 56.824219 9.523438 56.886719 9.53125 56.886719 9.53125 C 57.617188 9.359375 58.347656 9.21875 59.105469 9.300781 C 58.78125 9.820312 58.457031 10.339844 58.132812 10.859375 C 57.324219 10.980469 56.511719 11.101562 55.703125 11.226562 C 55.992188 10.621094 56.554688 10.1875 56.773438 9.535156 Z M 56.773438 9.535156 " fill-opacity="1" fill-rule="nonzero"/></g><path fill="#b48415" d="M 48.25 27.957031 C 47.292969 28.257812 46.359375 28.117188 45.429688 27.828125 C 45.53125 27.589844 45.828125 27.476562 45.835938 27.183594 C 46.582031 27.363281 47.328125 27.253906 48.074219 27.171875 C 48.132812 27.4375 48.191406 27.695312 48.25 27.957031 Z M 47.710938 11.960938 C 48.265625 12.28125 48.59375 12.832031 49.039062 13.269531 C 49.027344 13.625 49.019531 13.984375 49.007812 14.339844 C 48.445312 13.9375 48.148438 13.265625 47.574219 12.871094 C 47.5 12.550781 47.699219 12.273438 47.710938 11.960938 Z M 48.75 17.417969 C 48.210938 17.035156 47.898438 16.414062 47.304688 16.089844 C 47.3125 15.804688 47.21875 15.503906 47.429688 15.246094 C 47.875 15.625 48.320312 15.996094 48.761719 16.375 C 48.757812 16.722656 48.753906 17.070312 48.75 17.417969 Z M 47.039062 19.039062 C 47.519531 19.359375 48 19.675781 48.476562 19.996094 C 48.433594 20.300781 48.386719 20.605469 48.34375 20.910156 C 47.867188 20.558594 47.386719 20.207031 46.90625 19.855469 C 46.953125 19.582031 46.996094 19.308594 47.039062 19.039062 Z M 47.953125 23.976562 C 47.429688 23.980469 46.90625 23.980469 46.382812 23.980469 C 46.523438 23.664062 46.472656 23.320312 46.515625 22.984375 C 47.035156 23.035156 47.554688 23.222656 48.078125 23.023438 C 48.097656 23.351562 48.136719 23.679688 47.953125 23.976562 Z M 51.160156 11.667969 C 51.066406 11.054688 51.707031 10.699219 51.691406 10.113281 C 51.957031 10.109375 52.222656 10.105469 52.488281 10.101562 C 52.269531 10.621094 52.050781 11.136719 51.835938 11.652344 C 51.609375 11.65625 51.382812 11.660156 51.160156 11.667969 Z M 61.980469 10.347656 C 62.34375 9.78125 62.707031 9.210938 63.070312 8.644531 C 63.46875 8.585938 63.867188 8.523438 64.265625 8.464844 C 64.027344 9.117188 63.53125 9.609375 63.195312 10.199219 C 62.808594 10.382812 62.390625 10.320312 61.980469 10.347656 Z M 67.855469 7.855469 C 67.609375 8.488281 67.09375 8.980469 66.90625 9.644531 C 66.511719 9.652344 66.144531 9.867188 65.742188 9.789062 C 66.054688 9.214844 66.371094 8.640625 66.6875 8.070312 C 67.078125 8 67.46875 7.925781 67.855469 7.855469 Z M 60.367188 9.042969 C 60.066406 9.675781 59.496094 10.117188 59.152344 10.71875 C 58.824219 10.859375 58.488281 10.925781 58.132812 10.855469 C 58.457031 10.335938 58.78125 9.816406 59.105469 9.296875 C 59.523438 9.199219 59.910156 8.957031 60.367188 9.042969 Z M 54.664062 11.34375 C 55.132812 10.855469 55.496094 10.289062 55.847656 9.714844 C 56.132812 9.542969 56.460938 9.5625 56.773438 9.535156 C 56.554688 10.1875 55.992188 10.621094 55.699219 11.226562 C 55.355469 11.265625 55.007812 11.304688 54.664062 11.34375 Z M 56.800781 9.460938 C 56.832031 9.464844 56.859375 9.507812 56.886719 9.53125 C 56.886719 9.53125 56.824219 9.523438 56.824219 9.523438 L 56.761719 9.546875 C 56.722656 9.492188 56.738281 9.457031 56.800781 9.460938 Z M 56.800781 9.460938 " fill-opacity="1" fill-rule="nonzero"/></svg>